<svg xmlns="http://www.w3.org/2000/svg" xmlns:xlink="http://www.w3.org/1999/xlink" version="1.1" width="1000" height="1000" viewBox="0 0 1000 1000" xml:space="preserve">
<desc>Created with Fabric.js 3.5.0</desc>
<defs>
</defs>
<rect x="0" y="0" width="100%" height="100%" fill="rgba(255,255,255,0)"/>
<g transform="matrix(0 1.7756 1.7756 0 500.0081 499.9919)" id="756175">
<g style="" vector-effect="non-scaling-stroke">
		<g transform="matrix(1 0 0 1 -59 -11.4376)">
<path style="stroke: none; stroke-width: 1; stroke-dasharray: none; stroke-linecap: butt; stroke-dashoffset: 0; stroke-linejoin: miter; stroke-miterlimit: 4; is-custom-font: none; font-file-url: none; fill: #fff; fill-rule: evenodd; opacity: 0.979;" transform=" translate(-197, -244.5624)" d="M -0.5 56.5 C -0.5 52.8333 -0.5 49.1667 -0.5 45.5 C 1.73934 40.7658 5.40601 37.5992 10.5 36 C 28.1667 35.3333 45.8333 35.3333 63.5 36 C 66.2417 37.0704 68.7417 38.5704 71 40.5 C 96.221 104.826 121.054 169.326 145.5 234 C 164.232 234.038 182.898 234.705 201.5 236 C 265.996 272.414 330.329 309.08 394.5 346 C 362.296 375.989 354.296 411.489 370.5 452.5 C 325.505 453.5 280.505 453.833 235.5 453.5 C 257.345 410.353 253.512 369.686 224 331.5 C 195.447 300.928 160.614 289.928 119.5 298.5 C 119.667 283.496 119.5 268.496 119 253.5 C 95.7946 191.383 72.2946 129.383 48.5 67.5 C 35.8465 66.6674 23.1798 66.1674 10.5 66 C 5.40601 64.4008 1.73934 61.2342 -0.5 56.5 Z" stroke-linecap="round"/>
</g>
		<g transform="matrix(1 0 0 1 126.5313 42.237)">
<path style="stroke: none; stroke-width: 1; stroke-dasharray: none; stroke-linecap: butt; stroke-dashoffset: 0; stroke-linejoin: miter; stroke-miterlimit: 4; is-custom-font: none; font-file-url: none; fill: #fff; fill-rule: evenodd; opacity: 0.966;" transform=" translate(-382.5313, -298.237)" d="M 316.5 268.5 C 336.497 267.833 356.664 267.5 377 267.5 C 398.228 267.35 419.395 267.85 440.5 269 C 444.058 270.892 446.558 273.725 448 277.5 C 448.5 293.497 448.667 309.497 448.5 325.5 C 440.044 326.256 431.711 327.422 423.5 329 C 387.806 308.821 352.139 288.655 316.5 268.5 Z" stroke-linecap="round"/>
</g>
		<g transform="matrix(1 0 0 1 -111.2073 143.9193)">
<path style="stroke: none; stroke-width: 1; stroke-dasharray: none; stroke-linecap: butt; stroke-dashoffset: 0; stroke-linejoin: miter; stroke-miterlimit: 4; is-custom-font: none; font-file-url: none; fill: #fff; fill-rule: evenodd; opacity: 0.981;" transform=" translate(-144.7927, -399.9193)" d="M 136.5 324.5 C 175.568 323.094 202.401 340.427 217 376.5 C 226.536 416.578 213.702 447.078 178.5 468 C 142.83 482.539 111.996 475.705 86 447.5 C 64.3872 416.407 64.0539 385.074 85 353.5 C 98.7003 337.407 115.867 327.74 136.5 324.5 Z M 141.5 385.5 C 153.982 385.148 159.815 391.148 159 403.5 C 153.977 414.618 146.144 417.118 135.5 411 C 127.555 400.024 129.555 391.524 141.5 385.5 Z" stroke-linecap="round"/>
</g>
		<g transform="matrix(1 0 0 1 195.3958 158.9996)">
<path style="stroke: none; stroke-width: 1; stroke-dasharray: none; stroke-linecap: butt; stroke-dashoffset: 0; stroke-linejoin: miter; stroke-miterlimit: 4; is-custom-font: none; font-file-url: none; fill: #fff; fill-rule: evenodd; opacity: 0.981;" transform=" translate(-451.3958, -414.9996)" d="M 511.5 403.5 C 511.5 411.167 511.5 418.833 511.5 426.5 C 501.83 460.529 479.163 476.696 443.5 475 C 415.647 470.147 398.481 453.98 392 426.5 C 388.105 395.113 400.272 372.613 428.5 359 C 460.077 348.886 485.244 357.386 504 384.5 C 507.121 390.718 509.621 397.051 511.5 403.5 Z" stroke-linecap="round"/>
</g>
</g>
</g>
</svg>