<?xml version="1.0" encoding="UTF-8"?>
<!DOCTYPE svg PUBLIC "-//W3C//DTD SVG 1.1//EN" "http://www.w3.org/Graphics/SVG/1.1/DTD/svg11.dtd">
<svg xmlns="http://www.w3.org/2000/svg" version="1.1" width="512px" height="512px" style="shape-rendering:geometricPrecision; text-rendering:geometricPrecision; image-rendering:optimizeQuality; fill-rule:evenodd; clip-rule:evenodd" xmlns:xlink="http://www.w3.org/1999/xlink">
<g><path style="opacity:1" fill="#378bf2" d="M 232.5,-0.5 C 247.833,-0.5 263.167,-0.5 278.5,-0.5C 325.006,4.16882 367.339,20.0022 405.5,47C 407.763,48.617 409.763,50.4503 411.5,52.5C 411.611,53.1174 411.944,53.6174 412.5,54C 359.998,54.1672 307.665,54.6672 255.5,55.5C 255.5,77.5 255.5,99.5 255.5,121.5C 328.5,121.5 401.5,121.5 474.5,121.5C 474.5,121.833 474.5,122.167 474.5,122.5C 401.5,122.5 328.5,122.5 255.5,122.5C 222.167,122.5 188.833,122.5 155.5,122.5C 155.5,88.1667 155.5,53.8333 155.5,19.5C 180.165,8.91716 205.832,2.2505 232.5,-0.5 Z"/></g>
<g><path style="opacity:0.998" fill="#efeff0" d="M 155.5,19.5 C 155.5,53.8333 155.5,88.1667 155.5,122.5C 188.833,122.5 222.167,122.5 255.5,122.5C 255.5,144.5 255.5,166.5 255.5,188.5C 222.167,188.5 188.833,188.5 155.5,188.5C 155.5,210.833 155.5,233.167 155.5,255.5C 133.167,255.5 110.833,255.5 88.5,255.5C 88.5,233.5 88.5,211.5 88.5,189.5C 61.6718,188.502 34.6718,188.169 7.5,188.5C 13.9331,164.977 23.5998,142.977 36.5,122.5C 54.008,122.83 71.3414,122.497 88.5,121.5C 88.5,101.5 88.5,81.5 88.5,61.5C 108.186,43.5209 130.519,29.5209 155.5,19.5 Z"/></g>
<g><path style="opacity:1" fill="#72acf2" d="M 411.5,52.5 C 413.027,52.427 414.027,53.0937 414.5,54.5C 361.669,55.4989 308.669,55.8323 255.5,55.5C 307.665,54.6672 359.998,54.1672 412.5,54C 411.944,53.6174 411.611,53.1174 411.5,52.5 Z"/></g>
<g><path style="opacity:0.997" fill="#f0f0f0" d="M 414.5,54.5 C 438.805,73.1295 458.805,95.4628 474.5,121.5C 401.5,121.5 328.5,121.5 255.5,121.5C 255.5,99.5 255.5,77.5 255.5,55.5C 308.669,55.8323 361.669,55.4989 414.5,54.5 Z"/></g>
<g><path style="opacity:1" fill="#378bf2" d="M 88.5,61.5 C 88.5,81.5 88.5,101.5 88.5,121.5C 71.4665,122.152 54.7998,121.485 38.5,119.5C 44.9504,108.267 52.617,97.9334 61.5,88.5C 63.5869,87.4154 64.9202,85.7488 65.5,83.5C 72.5546,75.4435 80.2213,68.1102 88.5,61.5 Z"/></g>
<g><path style="opacity:0.867" fill="#73aff4" d="M 65.5,83.5 C 64.9202,85.7488 63.5869,87.4154 61.5,88.5C 62.0798,86.2512 63.4131,84.5846 65.5,83.5 Z"/></g>
<g><path style="opacity:1" fill="#97bff1" d="M 38.5,119.5 C 54.7998,121.485 71.4665,122.152 88.5,121.5C 71.3414,122.497 54.008,122.83 36.5,122.5C 36.427,120.973 37.0937,119.973 38.5,119.5 Z"/></g>
<g><path style="opacity:1" fill="#338af3" d="M 255.5,122.5 C 328.5,122.5 401.5,122.5 474.5,122.5C 487.35,142.546 496.684,164.213 502.5,187.5C 420.335,188.499 338.002,188.833 255.5,188.5C 255.5,166.5 255.5,144.5 255.5,122.5 Z"/></g>
<g><path style="opacity:1" fill="#5a9ef1" d="M 7.5,188.5 C 34.6718,188.169 61.6718,188.502 88.5,189.5C 61.4259,189.176 34.4259,189.509 7.5,190.5C 7.5,189.833 7.5,189.167 7.5,188.5 Z"/></g>
<g><path style="opacity:1" fill="#c9dbf1" d="M 502.5,187.5 C 503.338,187.842 503.672,188.508 503.5,189.5C 420.833,189.5 338.167,189.5 255.5,189.5C 255.5,189.167 255.5,188.833 255.5,188.5C 338.002,188.833 420.335,188.499 502.5,187.5 Z"/></g>
<g><path style="opacity:1" fill="#338af2" d="M 255.5,188.5 C 255.5,188.833 255.5,189.167 255.5,189.5C 255.5,211.5 255.5,233.5 255.5,255.5C 340.833,255.5 426.167,255.5 511.5,255.5C 511.5,263.167 511.5,270.833 511.5,278.5C 510.019,292.385 507.352,306.052 503.5,319.5C 421.042,320.831 338.375,321.497 255.5,321.5C 172.625,321.497 89.958,320.831 7.5,319.5C 3.64784,306.052 0.981176,292.385 -0.5,278.5C -0.5,263.167 -0.5,247.833 -0.5,232.5C -0.166667,232.5 0.166667,232.5 0.5,232.5C 1.73729,227.04 2.40396,221.373 2.5,215.5C 2.42993,211.575 3.09659,207.909 4.5,204.5C 5.91301,201.781 6.57968,198.781 6.5,195.5C 6.36596,193.708 6.69929,192.042 7.5,190.5C 34.4259,189.509 61.4259,189.176 88.5,189.5C 88.5,211.5 88.5,233.5 88.5,255.5C 110.833,255.5 133.167,255.5 155.5,255.5C 155.5,233.167 155.5,210.833 155.5,188.5C 188.833,188.5 222.167,188.5 255.5,188.5 Z"/></g>
<g><path style="opacity:0.999" fill="#f0f0f0" d="M 255.5,189.5 C 338.167,189.5 420.833,189.5 503.5,189.5C 507.155,203.775 509.821,218.109 511.5,232.5C 511.5,240.167 511.5,247.833 511.5,255.5C 426.167,255.5 340.833,255.5 255.5,255.5C 255.5,233.5 255.5,211.5 255.5,189.5 Z"/></g>
<g><path style="opacity:0.835" fill="#74aef3" d="M 6.5,195.5 C 6.57968,198.781 5.91301,201.781 4.5,204.5C 4.42032,201.219 5.08699,198.219 6.5,195.5 Z"/></g>
<g><path style="opacity:0.996" fill="#74aaf2" d="M 2.5,215.5 C 2.40396,221.373 1.73729,227.04 0.5,232.5C 0.321257,226.596 0.987923,220.929 2.5,215.5 Z"/></g>
<g><path style="opacity:1" fill="#599ef1" d="M 7.5,319.5 C 89.958,320.831 172.625,321.497 255.5,321.5C 338.375,321.497 421.042,320.831 503.5,319.5C 503.5,320.5 503.5,321.5 503.5,322.5C 338.167,322.5 172.833,322.5 7.5,322.5C 7.5,321.5 7.5,320.5 7.5,319.5 Z"/></g>
<g><path style="opacity:0.998" fill="#f0f0f0" d="M 7.5,322.5 C 172.833,322.5 338.167,322.5 503.5,322.5C 497.067,346.023 487.4,368.023 474.5,388.5C 328.5,388.5 182.5,388.5 36.5,388.5C 23.5998,368.023 13.9331,346.023 7.5,322.5 Z"/></g>
<g><path style="opacity:1" fill="#98c0f1" d="M 36.5,388.5 C 182.5,388.5 328.5,388.5 474.5,388.5C 474.672,389.492 474.338,390.158 473.5,390.5C 328.167,389.167 182.833,389.167 37.5,390.5C 36.6618,390.158 36.3284,389.492 36.5,388.5 Z"/></g>
<g><path style="opacity:1" fill="#338af3" d="M 473.5,390.5 C 458.475,415.867 439.142,437.533 415.5,455.5C 308.833,455.5 202.167,455.5 95.5,455.5C 71.8583,437.533 52.525,415.867 37.5,390.5C 182.833,389.167 328.167,389.167 473.5,390.5 Z"/></g>
<g><path style="opacity:0.989" fill="#eeeff0" d="M 95.5,455.5 C 202.167,455.5 308.833,455.5 415.5,455.5C 375.497,487.657 329.83,506.324 278.5,511.5C 263.167,511.5 247.833,511.5 232.5,511.5C 181.17,506.324 135.503,487.657 95.5,455.5 Z"/></g>
</svg>
