<?xml version="1.0" encoding="UTF-8"?>
<!DOCTYPE svg PUBLIC "-//W3C//DTD SVG 1.1//EN" "http://www.w3.org/Graphics/SVG/1.1/DTD/svg11.dtd">
<svg xmlns="http://www.w3.org/2000/svg" version="1.1" width="512px" height="512px" style="shape-rendering:geometricPrecision; text-rendering:geometricPrecision; image-rendering:optimizeQuality; fill-rule:evenodd; clip-rule:evenodd" xmlns:xlink="http://www.w3.org/1999/xlink">
<g><path style="opacity:1" fill="#d80027" d="M 232.5,-0.5 C 247.833,-0.5 263.167,-0.5 278.5,-0.5C 281.725,0.236789 285.059,0.903456 288.5,1.5C 288.5,75.1667 288.5,148.833 288.5,222.5C 362.167,222.5 435.833,222.5 509.5,222.5C 510.097,225.941 510.763,229.275 511.5,232.5C 511.5,247.833 511.5,263.167 511.5,278.5C 510.763,281.725 510.097,285.059 509.5,288.5C 435.833,288.5 362.167,288.5 288.5,288.5C 288.5,362.167 288.5,435.833 288.5,509.5C 285.059,510.097 281.725,510.763 278.5,511.5C 263.167,511.5 247.833,511.5 232.5,511.5C 229.275,510.763 225.941,510.097 222.5,509.5C 222.5,435.833 222.5,362.167 222.5,288.5C 148.833,288.5 75.1667,288.5 1.5,288.5C 0.903456,285.059 0.236789,281.725 -0.5,278.5C -0.5,263.167 -0.5,247.833 -0.5,232.5C 0.166667,229.167 0.833333,225.833 1.5,222.5C 75.1667,222.5 148.833,222.5 222.5,222.5C 222.5,148.833 222.5,75.1667 222.5,1.5C 225.941,0.903456 229.275,0.236789 232.5,-0.5 Z"/></g>
<g><path style="opacity:0.998" fill="#efefef" d="M 221.5,1.5 C 221.5,74.8333 221.5,148.167 221.5,221.5C 148.167,221.5 74.8333,221.5 1.5,221.5C 2.60191,210.658 4.60191,199.991 7.5,189.5C 52.1716,189.833 96.8383,189.5 141.5,188.5C 141.376,187.893 141.043,187.56 140.5,187.5C 111.368,158.868 82.368,130.035 53.5,101C 52.9056,100.536 52.2389,100.369 51.5,100.5C 53.8171,96.8536 56.4838,93.5203 59.5,90.5C 91.8333,123.5 124.5,156.167 157.5,188.5C 167.674,189.823 178.007,189.823 188.5,188.5C 188.376,187.893 188.043,187.56 187.5,187.5C 150.167,149.5 112.5,111.833 74.5,74.5C 81.9989,65.4324 90.6656,57.7658 100.5,51.5C 100.369,52.2389 100.536,52.9056 101,53.5C 130.035,82.368 158.868,111.368 187.5,140.5C 187.56,141.043 187.893,141.376 188.5,141.5C 189.5,96.8383 189.833,52.1716 189.5,7.5C 199.998,4.63911 210.664,2.63911 221.5,1.5 Z"/></g>
<g><path style="opacity:0.998" fill="#efefef" d="M 289.5,1.5 C 301.209,2.57449 312.543,4.90782 323.5,8.5C 323.167,8.5 322.833,8.5 322.5,8.5C 321.169,52.6685 321.169,97.0018 322.5,141.5C 323.107,141.376 323.44,141.043 323.5,140.5C 352.5,110.833 381.833,81.5 411.5,52.5C 414.792,54.4581 417.792,56.7915 420.5,59.5C 387.5,91.8333 354.833,124.5 322.5,157.5C 321.177,167.674 321.177,178.007 322.5,188.5C 323.107,188.376 323.44,188.043 323.5,187.5C 361.5,150.167 399.167,112.5 436.5,74.5C 445.316,81.6416 452.649,89.9749 458.5,99.5C 429.5,129.167 400.167,158.5 370.5,187.5C 369.957,187.56 369.624,187.893 369.5,188.5C 414.162,189.5 458.828,189.833 503.5,189.5C 506.398,199.991 508.398,210.658 509.5,221.5C 436.167,221.5 362.833,221.5 289.5,221.5C 289.5,148.167 289.5,74.8333 289.5,1.5 Z"/></g>
<g><path style="opacity:1" fill="#bacce2" d="M 187.5,8.5 C 187.842,7.66175 188.508,7.32842 189.5,7.5C 189.833,52.1716 189.5,96.8383 188.5,141.5C 187.893,141.376 187.56,141.043 187.5,140.5C 188.833,96.5 188.833,52.5 187.5,8.5 Z"/></g>
<g><path style="opacity:1" fill="#bacce2" d="M 322.5,8.5 C 322.168,52.6698 322.501,96.6698 323.5,140.5C 323.44,141.043 323.107,141.376 322.5,141.5C 321.169,97.0018 321.169,52.6685 322.5,8.5 Z"/></g>
<g><path style="opacity:1" fill="#0452b4" d="M 187.5,8.5 C 188.833,52.5 188.833,96.5 187.5,140.5C 158.868,111.368 130.035,82.368 101,53.5C 100.536,52.9056 100.369,52.2389 100.5,51.5C 126.304,31.0987 155.304,16.7653 187.5,8.5 Z"/></g>
<g><path style="opacity:1" fill="#0452b4" d="M 322.5,8.5 C 322.833,8.5 323.167,8.5 323.5,8.5C 356.199,16.8493 385.532,31.5159 411.5,52.5C 381.833,81.5 352.5,110.833 323.5,140.5C 322.501,96.6698 322.168,52.6698 322.5,8.5 Z"/></g>
<g><path style="opacity:1" fill="#d80f2b" d="M 420.5,59.5 C 426.463,63.7949 431.796,68.7949 436.5,74.5C 399.167,112.5 361.5,150.167 323.5,187.5C 322.506,177.681 322.173,167.681 322.5,157.5C 354.833,124.5 387.5,91.8333 420.5,59.5 Z"/></g>
<g><path style="opacity:1" fill="#d80e2b" d="M 74.5,74.5 C 112.5,111.833 150.167,149.5 187.5,187.5C 177.681,188.494 167.681,188.827 157.5,188.5C 124.5,156.167 91.8333,123.5 59.5,90.5C 63.7949,84.5374 68.7949,79.204 74.5,74.5 Z"/></g>
<g><path style="opacity:1" fill="#0452b4" d="M 51.5,100.5 C 52.2389,100.369 52.9056,100.536 53.5,101C 82.368,130.035 111.368,158.868 140.5,187.5C 96.5,188.833 52.5,188.833 8.5,187.5C 16.7653,155.304 31.0987,126.304 51.5,100.5 Z"/></g>
<g><path style="opacity:1" fill="#0452b4" d="M 458.5,99.5 C 479.484,125.468 494.151,154.801 502.5,187.5C 458.5,188.833 414.5,188.833 370.5,187.5C 400.167,158.5 429.5,129.167 458.5,99.5 Z"/></g>
<g><path style="opacity:1" fill="#e9b9c2" d="M 322.5,157.5 C 322.173,167.681 322.506,177.681 323.5,187.5C 323.44,188.043 323.107,188.376 322.5,188.5C 321.177,178.007 321.177,167.674 322.5,157.5 Z"/></g>
<g><path style="opacity:1" fill="#bfcfe4" d="M 8.5,187.5 C 52.5,188.833 96.5,188.833 140.5,187.5C 141.043,187.56 141.376,187.893 141.5,188.5C 96.8383,189.5 52.1716,189.833 7.5,189.5C 7.32842,188.508 7.66175,187.842 8.5,187.5 Z"/></g>
<g><path style="opacity:1" fill="#ebbdc5" d="M 187.5,187.5 C 188.043,187.56 188.376,187.893 188.5,188.5C 178.007,189.823 167.674,189.823 157.5,188.5C 167.681,188.827 177.681,188.494 187.5,187.5 Z"/></g>
<g><path style="opacity:1" fill="#bfcfe4" d="M 370.5,187.5 C 414.5,188.833 458.5,188.833 502.5,187.5C 503.338,187.842 503.672,188.508 503.5,189.5C 458.828,189.833 414.162,189.5 369.5,188.5C 369.624,187.893 369.957,187.56 370.5,187.5 Z"/></g>
<g><path style="opacity:1" fill="#e690a0" d="M 221.5,1.5 C 221.833,1.5 222.167,1.5 222.5,1.5C 222.5,75.1667 222.5,148.833 222.5,222.5C 148.833,222.5 75.1667,222.5 1.5,222.5C 1.5,222.167 1.5,221.833 1.5,221.5C 74.8333,221.5 148.167,221.5 221.5,221.5C 221.5,148.167 221.5,74.8333 221.5,1.5 Z"/></g>
<g><path style="opacity:0.999" fill="#e690a0" d="M 288.5,1.5 C 288.833,1.5 289.167,1.5 289.5,1.5C 289.5,74.8333 289.5,148.167 289.5,221.5C 362.833,221.5 436.167,221.5 509.5,221.5C 509.5,221.833 509.5,222.167 509.5,222.5C 435.833,222.5 362.167,222.5 288.5,222.5C 288.5,148.833 288.5,75.1667 288.5,1.5 Z"/></g>
<g><path style="opacity:0.998" fill="#efefef" d="M 1.5,289.5 C 74.8333,289.5 148.167,289.5 221.5,289.5C 221.5,362.833 221.5,436.167 221.5,509.5C 210.664,508.361 199.998,506.361 189.5,503.5C 189.833,458.828 189.5,414.162 188.5,369.5C 187.893,369.624 187.56,369.957 187.5,370.5C 158.5,400.167 129.167,429.5 99.5,458.5C 96.2085,456.542 93.2085,454.209 90.5,451.5C 123.5,419.167 156.167,386.5 188.5,353.5C 189.823,343.326 189.823,332.993 188.5,322.5C 187.893,322.624 187.56,322.957 187.5,323.5C 149.5,360.833 111.833,398.5 74.5,436.5C 65.6842,429.358 58.3509,421.025 52.5,411.5C 81.5,381.833 110.833,352.5 140.5,323.5C 141.043,323.44 141.376,323.107 141.5,322.5C 96.8383,321.5 52.1716,321.167 7.5,321.5C 4.60191,311.009 2.60191,300.342 1.5,289.5 Z"/></g>
<g><path style="opacity:0.999" fill="#e691a0" d="M 1.5,289.5 C 1.5,289.167 1.5,288.833 1.5,288.5C 75.1667,288.5 148.833,288.5 222.5,288.5C 222.5,362.167 222.5,435.833 222.5,509.5C 222.167,509.5 221.833,509.5 221.5,509.5C 221.5,436.167 221.5,362.833 221.5,289.5C 148.167,289.5 74.8333,289.5 1.5,289.5 Z"/></g>
<g><path style="opacity:0.999" fill="#e691a0" d="M 509.5,288.5 C 509.5,288.833 509.5,289.167 509.5,289.5C 436.167,289.5 362.833,289.5 289.5,289.5C 289.5,362.833 289.5,436.167 289.5,509.5C 289.167,509.5 288.833,509.5 288.5,509.5C 288.5,435.833 288.5,362.167 288.5,288.5C 362.167,288.5 435.833,288.5 509.5,288.5 Z"/></g>
<g><path style="opacity:0.998" fill="#efefef" d="M 509.5,289.5 C 508.398,300.342 506.398,311.009 503.5,321.5C 458.828,321.167 414.162,321.5 369.5,322.5C 369.624,323.107 369.957,323.44 370.5,323.5C 400.167,352.5 429.5,381.833 458.5,411.5C 456.542,414.792 454.209,417.792 451.5,420.5C 419.167,387.5 386.5,354.833 353.5,322.5C 343.326,321.177 332.993,321.177 322.5,322.5C 322.624,323.107 322.957,323.44 323.5,323.5C 360.833,361.5 398.5,399.167 436.5,436.5C 429.358,445.316 421.025,452.649 411.5,458.5C 381.833,429.5 352.5,400.167 323.5,370.5C 323.44,369.957 323.107,369.624 322.5,369.5C 321.5,414.162 321.167,458.828 321.5,503.5C 311.009,506.398 300.342,508.398 289.5,509.5C 289.5,436.167 289.5,362.833 289.5,289.5C 362.833,289.5 436.167,289.5 509.5,289.5 Z"/></g>
<g><path style="opacity:1" fill="#bfcfe3" d="M 7.5,321.5 C 52.1716,321.167 96.8383,321.5 141.5,322.5C 141.376,323.107 141.043,323.44 140.5,323.5C 96.5,322.167 52.5,322.167 8.5,323.5C 7.66175,323.158 7.32842,322.492 7.5,321.5 Z"/></g>
<g><path style="opacity:1" fill="#eabdc6" d="M 353.5,322.5 C 343.319,322.173 333.319,322.506 323.5,323.5C 322.957,323.44 322.624,323.107 322.5,322.5C 332.993,321.177 343.326,321.177 353.5,322.5 Z"/></g>
<g><path style="opacity:1" fill="#bfcfe3" d="M 503.5,321.5 C 503.672,322.492 503.338,323.158 502.5,323.5C 458.5,322.167 414.5,322.167 370.5,323.5C 369.957,323.44 369.624,323.107 369.5,322.5C 414.162,321.5 458.828,321.167 503.5,321.5 Z"/></g>
<g><path style="opacity:1" fill="#0553b4" d="M 140.5,323.5 C 110.833,352.5 81.5,381.833 52.5,411.5C 31.5159,385.532 16.8493,356.199 8.5,323.5C 52.5,322.167 96.5,322.167 140.5,323.5 Z"/></g>
<g><path style="opacity:1" fill="#e9b9c2" d="M 187.5,323.5 C 187.56,322.957 187.893,322.624 188.5,322.5C 189.823,332.993 189.823,343.326 188.5,353.5C 188.827,343.319 188.494,333.319 187.5,323.5 Z"/></g>
<g><path style="opacity:1" fill="#d80f2b" d="M 353.5,322.5 C 386.5,354.833 419.167,387.5 451.5,420.5C 447.205,426.463 442.205,431.796 436.5,436.5C 398.5,399.167 360.833,361.5 323.5,323.5C 333.319,322.506 343.319,322.173 353.5,322.5 Z"/></g>
<g><path style="opacity:1" fill="#0553b4" d="M 370.5,323.5 C 414.5,322.167 458.5,322.167 502.5,323.5C 494.151,356.199 479.484,385.532 458.5,411.5C 429.5,381.833 400.167,352.5 370.5,323.5 Z"/></g>
<g><path style="opacity:1" fill="#d80f2b" d="M 187.5,323.5 C 188.494,333.319 188.827,343.319 188.5,353.5C 156.167,386.5 123.5,419.167 90.5,451.5C 84.5374,447.205 79.204,442.205 74.5,436.5C 111.833,398.5 149.5,360.833 187.5,323.5 Z"/></g>
<g><path style="opacity:1" fill="#bacce2" d="M 187.5,370.5 C 187.56,369.957 187.893,369.624 188.5,369.5C 189.5,414.162 189.833,458.828 189.5,503.5C 188.508,503.672 187.842,503.338 187.5,502.5C 188.833,458.5 188.833,414.5 187.5,370.5 Z"/></g>
<g><path style="opacity:1" fill="#bacce2" d="M 323.5,370.5 C 322.167,414.5 322.167,458.5 323.5,502.5C 323.158,503.338 322.492,503.672 321.5,503.5C 321.167,458.828 321.5,414.162 322.5,369.5C 323.107,369.624 323.44,369.957 323.5,370.5 Z"/></g>
<g><path style="opacity:1" fill="#0452b4" d="M 187.5,370.5 C 188.833,414.5 188.833,458.5 187.5,502.5C 154.801,494.151 125.468,479.484 99.5,458.5C 129.167,429.5 158.5,400.167 187.5,370.5 Z"/></g>
<g><path style="opacity:1" fill="#0553b4" d="M 323.5,370.5 C 352.5,400.167 381.833,429.5 411.5,458.5C 385.532,479.484 356.199,494.151 323.5,502.5C 322.167,458.5 322.167,414.5 323.5,370.5 Z"/></g>
</svg>
