<?xml version="1.0" encoding="UTF-8"?>
<!DOCTYPE svg PUBLIC "-//W3C//DTD SVG 1.1//EN" "http://www.w3.org/Graphics/SVG/1.1/DTD/svg11.dtd">
<svg xmlns="http://www.w3.org/2000/svg" version="1.1" width="512px" height="512px" style="shape-rendering:geometricPrecision; text-rendering:geometricPrecision; image-rendering:optimizeQuality; fill-rule:evenodd; clip-rule:evenodd" xmlns:xlink="http://www.w3.org/1999/xlink">
<g><path style="opacity:0.996" fill="#efefef" d="M 232.5,-0.5 C 247.833,-0.5 263.167,-0.5 278.5,-0.5C 368.144,10.3879 435.644,54.7213 481,132.5C 486.519,143.234 491.353,154.234 495.5,165.5C 335.334,166.5 175.001,166.833 14.5,166.5C 48.6586,81.1759 110.325,27.3425 199.5,5C 210.576,2.74641 221.576,0.913081 232.5,-0.5 Z"/></g>
<g><path style="opacity:1" fill="#0152b4" d="M 495.5,165.5 C 503.827,187.141 509.161,209.475 511.5,232.5C 511.5,247.833 511.5,263.167 511.5,278.5C 509.161,301.525 503.827,323.859 495.5,345.5C 335.5,344.167 175.5,344.167 15.5,345.5C 7.17278,323.859 1.83944,301.525 -0.5,278.5C -0.5,263.167 -0.5,247.833 -0.5,232.5C 1.9444,210.045 6.9444,188.045 14.5,166.5C 175.001,166.833 335.334,166.5 495.5,165.5 Z"/></g>
<g><path style="opacity:1" fill="#ca0730" d="M 495.5,345.5 C 495.672,346.492 495.338,347.158 494.5,347.5C 415.169,346.167 335.503,345.5 255.5,345.5C 175.497,345.5 95.8305,346.167 16.5,347.5C 15.6618,347.158 15.3284,346.492 15.5,345.5C 175.5,344.167 335.5,344.167 495.5,345.5 Z"/></g>
<g><path style="opacity:1" fill="#d80227" d="M 494.5,347.5 C 472.137,406.039 433.47,450.539 378.5,481C 347.029,497.695 313.696,507.861 278.5,511.5C 263.167,511.5 247.833,511.5 232.5,511.5C 222.862,510.249 213.195,508.582 203.5,506.5C 201.162,504.96 198.495,504.294 195.5,504.5C 122.546,485.782 67.3793,443.782 30,378.5C 24.3814,368.602 19.8814,358.268 16.5,347.5C 95.8305,346.167 175.497,345.5 255.5,345.5C 335.503,345.5 415.169,346.167 494.5,347.5 Z"/></g>
<g><path style="opacity:0.812" fill="#e66a7a" d="M 195.5,504.5 C 198.495,504.294 201.162,504.96 203.5,506.5C 200.572,506.435 197.905,505.768 195.5,504.5 Z"/></g>
</svg>
