<?xml version="1.0" encoding="UTF-8"?>
<!DOCTYPE svg PUBLIC "-//W3C//DTD SVG 1.1//EN" "http://www.w3.org/Graphics/SVG/1.1/DTD/svg11.dtd">
<svg xmlns="http://www.w3.org/2000/svg" version="1.1" width="512px" height="512px" style="shape-rendering:geometricPrecision; text-rendering:geometricPrecision; image-rendering:optimizeQuality; fill-rule:evenodd; clip-rule:evenodd" xmlns:xlink="http://www.w3.org/1999/xlink">
<g><path style="opacity:1" fill="#348af2" d="M 232.5,-0.5 C 247.833,-0.5 263.167,-0.5 278.5,-0.5C 344.367,6.43335 399.7,34.1 444.5,82.5C 445.419,85.0892 447.086,87.0892 449.5,88.5C 485.446,129.745 506.113,177.745 511.5,232.5C 511.5,240.167 511.5,247.833 511.5,255.5C 340.833,255.5 170.167,255.5 -0.5,255.5C -0.5,247.833 -0.5,240.167 -0.5,232.5C 10.3875,142.857 54.7208,75.3573 132.5,30C 163.971,13.3053 197.304,3.1386 232.5,-0.5 Z"/></g>
<g><path style="opacity:0.992" fill="#78a6bd" d="M 444.5,82.5 C 446.914,83.9108 448.581,85.9108 449.5,88.5C 447.086,87.0892 445.419,85.0892 444.5,82.5 Z"/></g>
<g><path style="opacity:0.998" fill="#ffda44" d="M -0.5,255.5 C 170.167,255.5 340.833,255.5 511.5,255.5C 511.5,263.167 511.5,270.833 511.5,278.5C 500.612,368.144 456.279,435.644 378.5,481C 347.029,497.695 313.696,507.861 278.5,511.5C 263.167,511.5 247.833,511.5 232.5,511.5C 142.856,500.612 75.3562,456.279 30,378.5C 13.3053,347.029 3.1386,313.696 -0.5,278.5C -0.5,270.833 -0.5,263.167 -0.5,255.5 Z"/></g>
</svg>
