<?xml version="1.0" standalone="no"?>
<!DOCTYPE svg PUBLIC "-//W3C//DTD SVG 20010904//EN"
 "http://www.w3.org/TR/2001/REC-SVG-20010904/DTD/svg10.dtd">
<svg version="1.0" xmlns="http://www.w3.org/2000/svg"
 width="500.000000pt" height="500.000000pt" viewBox="0 0 500.000000 500.000000"
 preserveAspectRatio="xMidYMid meet">

<g transform="translate(0.000000,500.000000) scale(0.100000,-0.100000)"
 stroke="none">
<path d="M2434 4399 c-72 -9 -105 -22 -204 -80 -41 -25 -95 -55 -120 -69 -25
-13 -65 -36 -90 -51 -25 -15 -90 -53 -145 -85 -55 -31 -179 -103 -276 -160
-97 -57 -180 -104 -183 -104 -4 0 -35 -17 -69 -38 -105 -65 -279 -166 -332
-192 -75 -37 -175 -142 -216 -225 l-34 -70 0 -865 0 -865 33 -65 c44 -86 94
-144 156 -184 63 -41 312 -187 346 -204 14 -6 81 -45 150 -86 69 -42 148 -87
175 -102 28 -14 115 -65 194 -111 79 -47 189 -111 245 -143 55 -31 142 -80
192 -109 105 -60 178 -76 291 -67 96 9 117 17 268 106 72 42 189 109 260 150
72 40 137 79 145 85 8 7 60 37 115 67 55 30 152 85 215 123 63 37 138 80 165
95 180 96 346 201 396 250 66 66 117 164 130 253 12 82 11 1534 -1 1616 -20
144 -121 278 -269 358 -47 26 -153 86 -234 135 -82 48 -151 88 -154 88 -3 0
-54 29 -112 64 -58 35 -144 85 -191 111 -47 27 -159 91 -250 144 -91 53 -178
104 -195 113 -16 9 -61 35 -100 57 -99 56 -186 74 -301 60z m167 -275 c61 -18
142 -60 309 -159 63 -38 156 -91 205 -118 50 -27 95 -53 100 -57 11 -9 380
-223 550 -319 113 -64 178 -133 218 -231 22 -55 22 -56 25 -750 2 -453 -1
-711 -8 -743 -16 -75 -57 -150 -114 -205 -49 -48 -125 -97 -321 -205 -49 -27
-101 -57 -115 -66 -14 -10 -83 -51 -155 -91 -71 -40 -193 -110 -270 -155 -376
-219 -430 -245 -525 -245 -67 0 -152 30 -249 88 -53 31 -108 62 -122 68 -14 6
-45 24 -69 39 -43 27 -421 246 -575 333 -350 198 -400 237 -458 360 l-32 67
-3 695 c-2 455 1 711 8 743 16 75 60 156 117 214 28 29 56 53 61 53 6 0 46 21
89 47 107 63 482 281 623 361 63 36 174 99 245 141 182 107 205 119 266 135
72 20 134 19 200 0z"/>
<path d="M3017 3663 c-240 -247 -419 -573 -541 -980 -81 -272 -134 -597 -157
-967 -13 -206 -21 -224 -33 -71 -20 258 -92 585 -172 785 -98 241 -245 461
-395 591 -60 52 -164 129 -173 129 -3 0 7 -28 20 -62 41 -102 140 -376 168
-466 79 -252 190 -913 174 -1037 -4 -29 -4 -28 -11 10 -34 187 -87 342 -159
462 -41 71 -172 201 -259 258 -58 40 -201 105 -227 105 -6 0 8 -27 30 -60 71
-107 158 -345 198 -540 18 -91 39 -287 40 -372 l0 -28 980 0 980 0 0 49 c0
198 66 526 142 701 40 95 92 193 115 221 29 34 24 35 -53 9 -126 -44 -303
-175 -386 -287 -72 -98 -137 -253 -184 -438 l-8 -30 -4 35 c-12 108 95 702
170 945 30 98 84 249 154 429 18 49 32 91 30 93 -2 2 -48 -29 -102 -70 -91
-69 -170 -148 -251 -253 -81 -103 -207 -357 -261 -524 -31 -96 -88 -367 -107
-510 -9 -69 -20 -145 -24 -170 -8 -42 -9 -40 -10 30 -3 266 77 905 160 1276
44 196 180 669 219 758 11 27 19 51 16 53 -2 2 -38 -31 -79 -74z"/>
</g>
</svg>
