<?xml version="1.0" standalone="no"?>
<!DOCTYPE svg PUBLIC "-//W3C//DTD SVG 20010904//EN"
 "http://www.w3.org/TR/2001/REC-SVG-20010904/DTD/svg10.dtd">
<svg version="1.0" xmlns="http://www.w3.org/2000/svg"
 width="500.000000pt" height="500.000000pt" viewBox="0 0 500.000000 500.000000"
 preserveAspectRatio="xMidYMid meet">

<g transform="translate(0.000000,500.000000) scale(0.100000,-0.100000)"
 stroke="none">
<path d="M2434 4399 c-72 -9 -105 -22 -204 -80 -41 -25 -95 -55 -120 -69 -25
-13 -65 -36 -90 -51 -25 -15 -90 -53 -145 -85 -55 -31 -179 -103 -276 -160
-97 -57 -180 -104 -183 -104 -4 0 -35 -17 -69 -38 -105 -65 -279 -166 -332
-192 -75 -37 -175 -142 -216 -225 l-34 -70 0 -865 0 -865 33 -65 c44 -86 94
-144 156 -184 63 -41 312 -187 346 -204 14 -6 81 -45 150 -86 69 -42 148 -87
175 -102 28 -14 115 -65 194 -111 79 -47 189 -111 245 -143 55 -31 142 -80
192 -109 105 -60 178 -76 291 -67 96 9 117 17 268 106 72 42 189 109 260 150
72 40 137 79 145 85 8 7 60 37 115 67 55 30 152 85 215 123 63 37 138 80 165
95 180 96 346 201 396 250 66 66 117 164 130 253 12 82 11 1534 -1 1616 -20
144 -121 278 -269 358 -47 26 -153 86 -234 135 -82 48 -151 88 -154 88 -3 0
-54 29 -112 64 -58 35 -144 85 -191 111 -47 27 -159 91 -250 144 -91 53 -178
104 -195 113 -16 9 -61 35 -100 57 -99 56 -186 74 -301 60z m167 -275 c61 -18
142 -60 309 -159 63 -38 156 -91 205 -118 50 -27 95 -53 100 -57 11 -9 380
-223 550 -319 113 -64 178 -133 218 -231 22 -55 22 -56 25 -750 2 -453 -1
-711 -8 -743 -16 -75 -57 -150 -114 -205 -49 -48 -125 -97 -321 -205 -49 -27
-101 -57 -115 -66 -14 -10 -83 -51 -155 -91 -71 -40 -193 -110 -270 -155 -376
-219 -430 -245 -525 -245 -67 0 -152 30 -249 88 -53 31 -108 62 -122 68 -14 6
-45 24 -69 39 -43 27 -421 246 -575 333 -350 198 -400 237 -458 360 l-32 67
-3 695 c-2 455 1 711 8 743 16 75 60 156 117 214 28 29 56 53 61 53 6 0 46 21
89 47 107 63 482 281 623 361 63 36 174 99 245 141 182 107 205 119 266 135
72 20 134 19 200 0z"/>
<path d="M1501 3453 c-13 -26 -19 -49 -14 -51 4 -1 55 -29 113 -60 l105 -57
31 -440 c18 -242 35 -497 39 -567 l7 -128 60 0 61 0 -7 68 c-3 37 -22 297 -41
577 -20 281 -38 525 -41 542 -5 31 -13 37 -140 98 -74 36 -139 65 -143 65 -4
0 -17 -21 -30 -47z"/>
<path d="M2285 2513 c-64 -18 -98 -82 -93 -178 l3 -59 60 -1 60 0 3 -77 3 -76
37 -6 c20 -3 82 -8 137 -11 55 -3 119 -8 142 -11 l42 -5 3 93 3 93 30 1 c17 0
45 1 63 2 l32 2 0 66 c0 76 -19 124 -58 151 -24 16 -53 18 -237 20 -115 1
-219 -1 -230 -4z"/>
<path d="M1635 1996 c-111 -46 -175 -149 -174 -276 1 -94 13 -129 70 -196 93
-110 240 -140 368 -75 53 28 127 115 147 175 32 96 4 222 -68 308 -40 47 -124
81 -208 85 -63 3 -85 0 -135 -21z m183 -278 l-3 -63 -60 0 -60 0 -3 63 -3 62
66 0 66 0 -3 -62z"/>
<path d="M2124 1950 c97 -147 86 -356 -25 -496 l-31 -39 473 -3 c260 -1 474
-1 476 1 2 2 -12 30 -31 62 -82 136 -67 299 40 424 20 22 30 41 24 41 -7 0
-107 7 -224 15 -116 8 -301 19 -411 25 -110 6 -228 14 -263 17 l-63 6 35 -53z"/>
<path d="M3204 1876 c-159 -74 -191 -274 -62 -396 94 -89 245 -84 334 12 51
53 68 95 68 169 0 53 -5 74 -27 111 -67 116 -196 158 -313 104z m166 -221 l0
-65 -65 0 -65 0 0 65 0 65 65 0 65 0 0 -65z"/>
</g>
</svg>
