<?xml version="1.0" standalone="no"?>
<!DOCTYPE svg PUBLIC "-//W3C//DTD SVG 20010904//EN"
 "http://www.w3.org/TR/2001/REC-SVG-20010904/DTD/svg10.dtd">
<svg version="1.0" xmlns="http://www.w3.org/2000/svg"
 width="500.000000pt" height="500.000000pt" viewBox="0 0 500.000000 500.000000"
 preserveAspectRatio="xMidYMid meet">

<g transform="translate(0.000000,500.000000) scale(0.100000,-0.100000)"
 stroke="none">
<path d="M2434 4399 c-72 -9 -105 -22 -204 -80 -41 -25 -95 -55 -120 -69 -25
-13 -65 -36 -90 -51 -25 -15 -90 -53 -145 -85 -55 -31 -179 -103 -276 -160
-97 -57 -180 -104 -183 -104 -4 0 -35 -17 -69 -38 -105 -65 -279 -166 -332
-192 -75 -37 -175 -142 -216 -225 l-34 -70 0 -865 0 -865 33 -65 c44 -86 94
-144 156 -184 63 -41 312 -187 346 -204 14 -6 81 -45 150 -86 69 -42 148 -87
175 -102 28 -14 115 -65 194 -111 79 -47 189 -111 245 -143 55 -31 142 -80
192 -109 105 -60 178 -76 291 -67 96 9 117 17 268 106 72 42 189 109 260 150
72 40 137 79 145 85 8 7 60 37 115 67 55 30 152 85 215 123 63 37 138 80 165
95 180 96 346 201 396 250 66 66 117 164 130 253 12 82 11 1534 -1 1616 -20
144 -121 278 -269 358 -47 26 -153 86 -234 135 -82 48 -151 88 -154 88 -3 0
-54 29 -112 64 -58 35 -144 85 -191 111 -47 27 -159 91 -250 144 -91 53 -178
104 -195 113 -16 9 -61 35 -100 57 -99 56 -186 74 -301 60z m167 -275 c61 -18
142 -60 309 -159 63 -38 156 -91 205 -118 50 -27 95 -53 100 -57 11 -9 380
-223 550 -319 113 -64 178 -133 218 -231 22 -55 22 -56 25 -750 2 -453 -1
-711 -8 -743 -16 -75 -57 -150 -114 -205 -49 -48 -125 -97 -321 -205 -49 -27
-101 -57 -115 -66 -14 -10 -83 -51 -155 -91 -71 -40 -193 -110 -270 -155 -376
-219 -430 -245 -525 -245 -67 0 -152 30 -249 88 -53 31 -108 62 -122 68 -14 6
-45 24 -69 39 -43 27 -421 246 -575 333 -350 198 -400 237 -458 360 l-32 67
-3 695 c-2 455 1 711 8 743 16 75 60 156 117 214 28 29 56 53 61 53 6 0 46 21
89 47 107 63 482 281 623 361 63 36 174 99 245 141 182 107 205 119 266 135
72 20 134 19 200 0z"/>
<path d="M1765 3519 c-34 -10 -55 -34 -55 -62 0 -11 47 -68 110 -132 111 -114
117 -124 110 -190 -7 -67 -66 -110 -137 -102 -41 4 -54 14 -152 111 -111 109
-135 122 -175 93 -36 -26 -47 -152 -20 -252 32 -124 115 -225 233 -283 71 -35
80 -37 170 -37 53 0 113 4 133 8 l36 8 351 -352 351 -352 -7 -36 c-5 -20 -8
-79 -8 -131 1 -82 5 -103 28 -154 34 -74 107 -160 167 -198 119 -76 345 -93
380 -28 22 42 11 62 -96 170 -93 95 -106 113 -111 150 -11 78 44 140 124 140
49 0 66 -12 184 -127 101 -98 124 -108 158 -74 45 45 41 222 -8 321 -62 125
-147 198 -270 234 -63 18 -178 21 -235 5 l-39 -11 -353 353 c-277 277 -353
358 -348 372 15 47 21 137 13 193 -30 217 -212 375 -429 373 -41 0 -88 -5
-105 -10z"/>
<path d="M3210 3429 c-208 -124 -226 -144 -179 -203 l21 -27 -209 -209 -210
-209 89 -88 88 -88 209 209 209 209 32 -26 c55 -46 89 -30 145 68 15 28 59
101 97 163 42 70 68 123 68 141 0 40 -127 161 -168 160 -15 0 -98 -43 -192
-100z"/>
<path d="M1783 2097 c-338 -339 -353 -357 -353 -457 0 -178 189 -302 350 -229
33 15 129 104 360 334 l315 315 -175 175 c-96 96 -177 175 -180 175 -3 0 -146
-141 -317 -313z m383 45 c20 -13 35 -51 29 -75 -4 -13 -97 -115 -209 -226
-169 -168 -207 -201 -231 -201 -37 0 -65 26 -65 62 0 23 35 63 208 238 208
209 231 227 268 202z"/>
</g>
</svg>
