<?xml version="1.0" standalone="no"?>
<!DOCTYPE svg PUBLIC "-//W3C//DTD SVG 20010904//EN"
 "http://www.w3.org/TR/2001/REC-SVG-20010904/DTD/svg10.dtd">
<svg version="1.0" xmlns="http://www.w3.org/2000/svg"
 width="500.000000pt" height="500.000000pt" viewBox="0 0 500.000000 500.000000"
 preserveAspectRatio="xMidYMid meet">

<g transform="translate(0.000000,500.000000) scale(0.100000,-0.100000)"
 stroke="none">
<path d="M2434 4399 c-72 -9 -105 -22 -204 -80 -41 -25 -95 -55 -120 -69 -25
-13 -65 -36 -90 -51 -25 -15 -90 -53 -145 -85 -55 -31 -179 -103 -276 -160
-97 -57 -180 -104 -183 -104 -4 0 -35 -17 -69 -38 -105 -65 -279 -166 -332
-192 -75 -37 -175 -142 -216 -225 l-34 -70 0 -865 0 -865 33 -65 c44 -86 94
-144 156 -184 69 -45 258 -156 326 -193 30 -17 111 -63 180 -103 69 -40 170
-98 225 -130 55 -31 159 -91 230 -132 482 -282 437 -262 585 -262 133 0 152 6
338 117 59 35 166 96 237 137 72 40 137 79 145 85 8 7 60 37 115 67 55 30 152
85 215 123 63 37 138 80 165 95 180 96 346 201 396 250 66 66 117 164 130 253
12 82 11 1534 -1 1616 -20 144 -121 278 -269 358 -47 26 -153 86 -234 135 -82
48 -151 88 -154 88 -3 0 -54 29 -112 64 -58 35 -144 85 -191 111 -47 27 -159
91 -250 144 -91 53 -178 104 -195 113 -16 9 -61 35 -100 57 -99 56 -186 74
-301 60z m167 -275 c61 -18 142 -60 309 -159 63 -38 156 -91 205 -118 50 -27
95 -53 100 -57 11 -9 380 -223 550 -319 113 -64 178 -133 218 -231 22 -55 22
-56 25 -750 2 -451 -1 -712 -8 -743 -16 -75 -57 -150 -114 -205 -49 -48 -125
-97 -321 -205 -49 -27 -101 -57 -115 -66 -14 -10 -83 -51 -155 -91 -71 -40
-193 -110 -270 -155 -376 -219 -430 -245 -525 -245 -67 0 -152 30 -249 88 -53
31 -108 62 -122 68 -14 6 -45 24 -69 39 -44 28 -425 249 -575 333 -350 198
-400 236 -458 360 l-32 67 -3 695 c-2 455 1 711 8 743 16 75 60 156 117 214
28 29 56 53 61 53 6 0 46 21 89 47 107 63 482 281 623 361 63 36 174 99 245
141 182 107 205 119 266 135 72 20 134 19 200 0z"/>
<path d="M2438 3854 c-18 -20 -37 -43 -42 -52 -9 -15 -94 -124 -284 -361 -37
-46 -84 -107 -105 -135 -22 -28 -52 -67 -67 -86 -154 -191 -156 -194 -120
-230 18 -18 33 -20 150 -20 72 0 130 -4 130 -8 0 -5 -63 -89 -140 -188 -78
-98 -176 -227 -220 -285 -44 -58 -86 -112 -95 -119 -23 -19 -19 -66 7 -84 18
-13 51 -16 151 -16 147 0 143 10 49 -107 -34 -43 -82 -104 -105 -135 -23 -31
-97 -127 -164 -213 -102 -130 -123 -163 -123 -191 0 -23 6 -37 19 -44 13 -6
156 -10 395 -10 432 0 389 13 357 -112 -23 -90 -71 -198 -106 -239 -27 -33
-33 -80 -11 -98 9 -8 121 -10 392 -9 l379 3 9 26 c11 31 8 38 -39 102 -36 50
-88 194 -100 280 l-7 47 379 0 c355 0 381 1 396 18 27 29 20 61 -25 121 -24
31 -46 60 -50 66 -5 5 -45 57 -91 115 -46 58 -108 139 -138 180 -31 41 -77 99
-102 129 -26 30 -47 58 -47 63 0 4 57 8 128 8 99 0 132 3 150 16 27 18 30 65
5 85 -9 8 -54 64 -100 124 -45 61 -123 162 -173 225 -50 63 -113 144 -141 180
l-51 65 142 5 c125 4 143 7 156 24 8 11 14 26 14 34 0 8 -35 57 -77 110 -43
52 -85 104 -93 116 -8 11 -48 63 -90 115 -41 51 -90 114 -108 140 -19 25 -62
80 -96 121 -34 41 -82 102 -106 135 -101 138 -133 154 -192 89z"/>
</g>
</svg>
