<?xml version="1.0" standalone="no"?>
<!DOCTYPE svg PUBLIC "-//W3C//DTD SVG 20010904//EN"
 "http://www.w3.org/TR/2001/REC-SVG-20010904/DTD/svg10.dtd">
<svg version="1.0" xmlns="http://www.w3.org/2000/svg"
 width="512.000000pt" height="512.000000pt" viewBox="0 0 512.000000 512.000000"
 preserveAspectRatio="xMidYMid meet">

<g transform="translate(0.000000,512.000000) scale(0.100000,-0.100000)"
 stroke="none">
<path d="M496 4385 c-3 -9 31 -79 84 -170 547 -947 898 -1892 939 -2528 4 -67
6 -123 5 -125 -1 -2 -47 33 -101 78 -302 251 -676 438 -977 490 -108 18 -136
16 -136 -12 0 -5 74 -88 164 -186 501 -541 757 -890 782 -1064 l6 -48 -215 0
c-183 0 -218 -2 -231 -16 -22 -21 -20 -61 3 -74 13 -7 573 -10 1740 -10 l1721
0 16 25 c15 23 15 27 0 50 l-16 25 -305 0 -305 0 0 24 c0 76 75 382 139 567
176 509 517 1072 929 1537 100 112 91 133 -39 91 -828 -271 -1417 -871 -1654
-1684 l-23 -80 -7 48 c-10 67 1 1023 14 1192 29 379 62 662 113 973 26 164 29
195 17 203 -8 5 -17 9 -21 9 -23 0 -241 -312 -340 -485 -263 -461 -426 -993
-469 -1524 l-13 -155 -33 160 c-206 992 -670 1884 -1228 2362 -129 111 -311
235 -436 298 -96 48 -114 52 -123 29z"/>
</g>
</svg>
