<?xml version="1.0" standalone="no"?>
<!DOCTYPE svg PUBLIC "-//W3C//DTD SVG 20010904//EN"
 "http://www.w3.org/TR/2001/REC-SVG-20010904/DTD/svg10.dtd">
<svg version="1.0" xmlns="http://www.w3.org/2000/svg"
 width="512.000000pt" height="512.000000pt" viewBox="0 0 512.000000 512.000000"
 preserveAspectRatio="xMidYMid meet">

<g transform="translate(0.000000,512.000000) scale(0.100000,-0.100000)"
 stroke="none">
<path fill="#fff" d="M100 4549 c-54 -22 -100 -92 -100 -152 0 -54 40 -118 90 -144 41 -22
54 -23 232 -23 l188 0 300 -600 300 -600 0 -239 0 -240 118 5 c616 29 1149
-432 1212 -1048 19 -180 -12 -402 -76 -547 -13 -29 -24 -57 -24 -62 0 -5 320
-9 731 -9 l731 0 -7 36 c-10 54 -7 222 5 284 51 265 228 492 473 605 126 58
184 69 361 70 l159 0 -5 110 c-6 123 -19 160 -69 195 -19 14 -629 202 -1676
516 -906 272 -1647 495 -1649 497 -1 1 -148 295 -327 653 -272 545 -331 656
-359 675 -33 24 -37 24 -308 26 -168 1 -285 -2 -300 -8z m3496 -2685 c54 -40
69 -70 69 -139 0 -69 -15 -99 -69 -139 -26 -20 -42 -21 -413 -24 l-385 -3 -43
26 c-48 27 -85 90 -85 142 0 47 41 115 86 141 39 22 41 22 426 20 373 -3 388
-4 414 -24z"/>
<path fill="#fff" d="M2355 3598 c-55 -30 -76 -63 -111 -176 -20 -63 -34 -115 -32 -116 7
-7 1982 -596 1985 -593 2 2 17 50 34 107 44 146 34 206 -42 262 -14 10 -407
133 -874 273 -853 256 -910 271 -960 243z"/>
<path fill="#fff" d="M1220 2223 c-366 -26 -683 -305 -756 -665 -23 -112 -15 -305 16 -403
89 -278 301 -488 577 -567 113 -33 333 -33 446 0 276 79 488 289 577 567 31
98 39 291 16 403 -65 319 -322 580 -637 645 -82 17 -171 25 -239 20z m192
-352 c257 -71 418 -344 352 -596 -65 -252 -311 -418 -556 -377 -292 50 -484
332 -413 607 72 278 347 441 617 366z"/>
<path fill="#fff" d="M4500 1542 c-97 -28 -164 -66 -228 -130 -130 -130 -180 -305 -136
-476 57 -221 256 -376 483 -376 140 0 251 47 351 149 158 160 192 378 91 579
-34 67 -120 159 -184 196 -115 68 -263 90 -377 58z m197 -339 c51 -24 85 -81
85 -141 0 -155 -169 -228 -278 -119 -62 63 -68 151 -14 219 43 55 138 74 207
41z"/>
</g>
</svg>
