<?xml version="1.0" standalone="no"?>
<!DOCTYPE svg PUBLIC "-//W3C//DTD SVG 20010904//EN"
 "http://www.w3.org/TR/2001/REC-SVG-20010904/DTD/svg10.dtd">
<svg version="1.0" xmlns="http://www.w3.org/2000/svg"
 width="512.000000pt" height="512.000000pt" viewBox="0 0 512.000000 512.000000"
 preserveAspectRatio="xMidYMid meet">

<g transform="translate(0.000000,512.000000) scale(0.100000,-0.100000)"
 stroke="none">
<path d="M2450 5029 c-72 -8 -147 -34 -212 -76 -97 -60 -133 -113 -417 -604
-255 -440 -275 -478 -278 -529 -5 -65 17 -113 67 -147 70 -48 154 -42 210 15
20 20 148 231 284 467 137 237 260 445 273 463 37 49 80 72 136 72 52 0 91
-16 122 -50 19 -21 864 -1472 860 -1478 -1 -1 -86 20 -189 48 -103 27 -200 50
-215 50 -41 0 -113 -41 -138 -79 -47 -70 -25 -181 47 -232 27 -19 758 -219
800 -219 39 1 105 35 128 67 23 32 35 74 148 493 59 222 75 295 71 332 -11
119 -143 185 -249 126 -54 -30 -71 -63 -109 -205 -18 -68 -35 -123 -39 -123
-4 0 -189 314 -411 698 -454 786 -458 791 -604 863 -90 45 -175 59 -285 48z"/>
<path d="M920 2970 c-201 -55 -376 -108 -390 -118 -46 -34 -70 -81 -70 -136 0
-82 47 -144 126 -166 37 -11 56 -8 195 29 84 22 155 39 156 37 1 -1 -197 -348
-442 -771 -245 -422 -454 -793 -466 -824 -63 -168 -20 -374 107 -511 63 -68
127 -111 210 -142 58 -22 67 -23 639 -26 l580 -3 44 23 c53 27 79 60 91 114
12 50 -2 103 -37 145 -51 60 -41 59 -635 59 -507 0 -546 2 -584 19 -69 31
-112 108 -101 178 7 39 908 1605 919 1595 3 -4 26 -82 51 -175 25 -92 52 -179
61 -193 37 -55 121 -85 186 -65 78 23 123 82 122 160 0 26 -43 204 -100 414
-86 319 -104 373 -128 399 -40 42 -76 58 -126 57 -24 0 -207 -45 -408 -99z"/>
<path d="M4307 2307 c-71 -43 -100 -119 -74 -193 7 -21 131 -242 275 -490 143
-249 264 -467 267 -486 14 -74 -36 -160 -108 -187 -19 -8 -298 -11 -859 -11
l-831 0 126 128 c134 138 146 158 134 242 -13 100 -127 165 -224 130 -37 -14
-591 -566 -609 -607 -19 -44 -17 -90 5 -138 12 -26 116 -137 297 -317 258
-255 282 -277 324 -285 80 -16 141 9 188 77 26 39 30 116 8 158 -8 15 -67 79
-130 142 -64 63 -116 118 -116 122 0 5 384 8 853 8 941 0 896 -3 1022 63 211
112 317 383 237 610 -22 62 -539 966 -575 1005 -53 57 -143 70 -210 29z"/>
</g>
</svg>
