<?xml version="1.0" encoding="UTF-8"?>
<!DOCTYPE svg PUBLIC "-//W3C//DTD SVG 1.1//EN" "http://www.w3.org/Graphics/SVG/1.1/DTD/svg11.dtd">
<svg xmlns="http://www.w3.org/2000/svg" version="1.1" width="512px" height="512px"  box-shadow="0 4px 8px 0 #03762b, 0 6px 20px 0 #03762b" transform="scaleX(-1)" style="shape-rendering:geometricPrecision; text-rendering:geometricPrecision; image-rendering:optimizeQuality; fill-rule:evenodd; clip-rule:evenodd" xmlns:xlink="http://www.w3.org/1999/xlink">
<g><path style="opacity:0.979" fill="#fff" d="M -0.5,56.5 C -0.5,52.8333 -0.5,49.1667 -0.5,45.5C 1.73934,40.7658 5.40601,37.5992 10.5,36C 28.1667,35.3333 45.8333,35.3333 63.5,36C 66.2417,37.0704 68.7417,38.5704 71,40.5C 96.221,104.826 121.054,169.326 145.5,234C 164.232,234.038 182.898,234.705 201.5,236C 265.996,272.414 330.329,309.08 394.5,346C 362.296,375.989 354.296,411.489 370.5,452.5C 325.505,453.5 280.505,453.833 235.5,453.5C 257.345,410.353 253.512,369.686 224,331.5C 195.447,300.928 160.614,289.928 119.5,298.5C 119.667,283.496 119.5,268.496 119,253.5C 95.7946,191.383 72.2946,129.383 48.5,67.5C 35.8465,66.6674 23.1798,66.1674 10.5,66C 5.40601,64.4008 1.73934,61.2342 -0.5,56.5 Z"/></g>
<g><path style="opacity:0.966" fill="#fff" d="M 316.5,268.5 C 336.497,267.833 356.664,267.5 377,267.5C 398.228,267.35 419.395,267.85 440.5,269C 444.058,270.892 446.558,273.725 448,277.5C 448.5,293.497 448.667,309.497 448.5,325.5C 440.044,326.256 431.711,327.422 423.5,329C 387.806,308.821 352.139,288.655 316.5,268.5 Z"/></g>
<g><path style="opacity:0.981" fill="#fff" d="M 136.5,324.5 C 175.568,323.094 202.401,340.427 217,376.5C 226.536,416.578 213.702,447.078 178.5,468C 142.83,482.539 111.996,475.705 86,447.5C 64.3872,416.407 64.0539,385.074 85,353.5C 98.7003,337.407 115.867,327.74 136.5,324.5 Z M 141.5,385.5 C 153.982,385.148 159.815,391.148 159,403.5C 153.977,414.618 146.144,417.118 135.5,411C 127.555,400.024 129.555,391.524 141.5,385.5 Z"/></g>
<g><path style="opacity:0.981" fill="#fff" d="M 511.5,403.5 C 511.5,411.167 511.5,418.833 511.5,426.5C 501.83,460.529 479.163,476.696 443.5,475C 415.647,470.147 398.481,453.98 392,426.5C 388.105,395.113 400.272,372.613 428.5,359C 460.077,348.886 485.244,357.386 504,384.5C 507.121,390.718 509.621,397.051 511.5,403.5 Z"/></g>
</svg>
