<svg xmlns="http://www.w3.org/2000/svg" xmlns:xlink="http://www.w3.org/1999/xlink" version="1.1" width="1000" height="1000" viewBox="0 0 1000 1000" xml:space="preserve">
<desc>Created with Fabric.js 3.5.0</desc>
<defs>
</defs>
<rect x="0" y="0" width="100%" height="100%" fill="transparent"/>
<g transform="matrix(0 2.1456 -2.163 0 500.0098 1265.3414)" id="894795">
<path style="stroke: none; stroke-width: 1; stroke-dasharray: none; stroke-linecap: butt; stroke-dashoffset: 0; stroke-linejoin: miter; stroke-miterlimit: 4; is-custom-font: none; font-file-url: none; fill: rgb(0,128,0); fill-rule: evenodd; opacity: 0.994;" vector-effect="non-scaling-stroke" transform=" translate(-255.5, -255.5)" d="M 511.5 245.5 C 511.5 252.5 511.5 259.5 511.5 266.5 C 509.659 272.174 507.493 277.84 505 283.5 C 470.253 343.997 435.253 404.33 400 464.5 C 388.52 477.656 374.02 484.489 356.5 485 C 322.833 485.167 289.167 485.333 255.5 485.5 C 218.479 485.634 181.479 485.134 144.5 484 C 130.15 481.3 118.65 474.133 110 462.5 C 73.9337 400.758 38.2671 338.758 3 276.5 C 1.69123 272.746 0.524565 269.079 -0.5 265.5 C -0.5 258.833 -0.5 252.167 -0.5 245.5 C 1.49433 237.49 4.661 229.824 9 222.5 C 42.5859 164.997 75.9193 107.33 109 49.5 C 120.335 34.415 135.501 26.5816 154.5 26 C 188.167 25.8333 221.833 25.6667 255.5 25.5 C 292.521 25.3663 329.521 25.8663 366.5 27 C 384.253 30.7599 397.419 40.5932 406 56.5 C 439.667 115.167 473.333 173.833 507 232.5 C 508.436 236.98 509.936 241.313 511.5 245.5 Z" stroke-linecap="round"/>
</g>
</svg>