<?xml version="1.0" encoding="UTF-8"?>
<!DOCTYPE svg PUBLIC "-//W3C//DTD SVG 1.1//EN" "http://www.w3.org/Graphics/SVG/1.1/DTD/svg11.dtd">
<svg xmlns="http://www.w3.org/2000/svg" version="1.1" width="1000px" height="289px" style="shape-rendering:geometricPrecision; text-rendering:geometricPrecision; image-rendering:optimizeQuality; fill-rule:evenodd; clip-rule:evenodd" xmlns:xlink="http://www.w3.org/1999/xlink">
<g><path style="opacity:1" fill="#007e00" d="M 554.5,15.5 C 554.821,17.0481 555.821,17.7148 557.5,17.5C 557.833,17.5 558.167,17.5 558.5,17.5C 558.821,19.0481 559.821,19.7148 561.5,19.5C 561.833,19.5 562.167,19.5 562.5,19.5C 562.821,21.0481 563.821,21.7148 565.5,21.5C 566.833,22.1667 568.167,22.8333 569.5,23.5C 569.821,25.0481 570.821,25.7148 572.5,25.5C 574.062,25.7329 575.395,26.3995 576.5,27.5C 576.821,29.0481 577.821,29.7148 579.5,29.5C 580.833,30.1667 582.167,30.8333 583.5,31.5C 583.821,33.0481 584.821,33.7148 586.5,33.5C 589.661,34.9131 592.661,36.5797 595.5,38.5C 595.821,40.0481 596.821,40.7148 598.5,40.5C 599.833,41.1667 601.167,41.8333 602.5,42.5C 602.821,44.0481 603.821,44.7148 605.5,44.5C 606.833,45.1667 608.167,45.8333 609.5,46.5C 609.821,48.0481 610.821,48.7148 612.5,48.5C 613.167,48.8333 613.833,49.1667 614.5,49.5C 614.821,51.0481 615.821,51.7148 617.5,51.5C 619.062,51.7329 620.395,52.3995 621.5,53.5C 621.821,55.0481 622.821,55.7148 624.5,55.5C 625.833,56.1667 627.167,56.8333 628.5,57.5C 628.821,59.0481 629.821,59.7148 631.5,59.5C 634.661,60.9131 637.661,62.5797 640.5,64.5C 640.821,66.0481 641.821,66.7148 643.5,66.5C 644.833,67.1667 646.167,67.8333 647.5,68.5C 647.821,70.0481 648.821,70.7148 650.5,70.5C 653.661,71.9131 656.661,73.5797 659.5,75.5C 659.821,77.0481 660.821,77.7148 662.5,77.5C 663.833,78.1667 665.167,78.8333 666.5,79.5C 666.821,81.0481 667.821,81.7148 669.5,81.5C 670.833,82.1667 672.167,82.8333 673.5,83.5C 673.821,85.0481 674.821,85.7148 676.5,85.5C 677.833,86.1667 679.167,86.8333 680.5,87.5C 680.821,89.0481 681.821,89.7148 683.5,89.5C 688.833,92.5 694.167,95.5 699.5,98.5C 699.821,100.048 700.821,100.715 702.5,100.5C 704.062,100.733 705.395,101.4 706.5,102.5C 706.821,104.048 707.821,104.715 709.5,104.5C 710.833,105.167 712.167,105.833 713.5,106.5C 713.821,108.048 714.821,108.715 716.5,108.5C 717.833,109.167 719.167,109.833 720.5,110.5C 720.821,112.048 721.821,112.715 723.5,112.5C 728.833,115.5 734.167,118.5 739.5,121.5C 739.821,123.048 740.821,123.715 742.5,123.5C 744.062,123.733 745.395,124.4 746.5,125.5C 746.821,127.048 747.821,127.715 749.5,127.5C 750.833,128.167 752.167,128.833 753.5,129.5C 753.821,131.048 754.821,131.715 756.5,131.5C 757.833,132.167 759.167,132.833 760.5,133.5C 760.821,135.048 761.821,135.715 763.5,135.5C 764.833,136.167 766.167,136.833 767.5,137.5C 767.821,139.048 768.821,139.715 770.5,139.5C 771.833,140.167 773.167,140.833 774.5,141.5C 774.821,143.048 775.821,143.715 777.5,143.5C 778.833,144.167 780.167,144.833 781.5,145.5C 781.821,147.048 782.821,147.715 784.5,147.5C 785.833,148.167 787.167,148.833 788.5,149.5C 788.821,151.048 789.821,151.715 791.5,151.5C 792.833,152.167 794.167,152.833 795.5,153.5C 795.821,155.048 796.821,155.715 798.5,155.5C 799.833,156.167 801.167,156.833 802.5,157.5C 802.821,159.048 803.821,159.715 805.5,159.5C 806.833,160.167 808.167,160.833 809.5,161.5C 809.821,163.048 810.821,163.715 812.5,163.5C 813.833,164.167 815.167,164.833 816.5,165.5C 816.821,167.048 817.821,167.715 819.5,167.5C 820.833,168.167 822.167,168.833 823.5,169.5C 823.821,171.048 824.821,171.715 826.5,171.5C 837.167,177.5 847.833,183.5 858.5,189.5C 858.821,191.048 859.821,191.715 861.5,191.5C 862.833,192.167 864.167,192.833 865.5,193.5C 865.821,195.048 866.821,195.715 868.5,195.5C 869.833,196.167 871.167,196.833 872.5,197.5C 872.821,199.048 873.821,199.715 875.5,199.5C 876.833,200.167 878.167,200.833 879.5,201.5C 879.821,203.048 880.821,203.715 882.5,203.5C 883.833,204.167 885.167,204.833 886.5,205.5C 886.821,207.048 887.821,207.715 889.5,207.5C 898.634,212.234 907.634,217.234 916.5,222.5C 916.821,224.048 917.821,224.715 919.5,224.5C 920.833,225.167 922.167,225.833 923.5,226.5C 923.821,228.048 924.821,228.715 926.5,228.5C 927.833,229.167 929.167,229.833 930.5,230.5C 930.821,232.048 931.821,232.715 933.5,232.5C 934.833,233.167 936.167,233.833 937.5,234.5C 937.821,236.048 938.821,236.715 940.5,236.5C 952.367,243.364 962.367,252.364 970.5,263.5C 970.427,265.027 971.094,266.027 972.5,266.5C 972.738,268.404 973.738,269.738 975.5,270.5C 975.427,272.027 976.094,273.027 977.5,273.5C 980.927,278.016 983.593,283.016 985.5,288.5C 661.5,288.5 337.5,288.5 13.5,288.5C 14.9922,284.182 16.9922,280.182 19.5,276.5C 20.9063,276.027 21.573,275.027 21.5,273.5C 22.9063,273.027 23.573,272.027 23.5,270.5C 25.1108,266.949 27.4442,263.949 30.5,261.5C 31.9063,261.027 32.573,260.027 32.5,258.5C 33.8333,256.5 35.5,254.833 37.5,253.5C 40.4274,252.243 42.7607,250.243 44.5,247.5C 44.5,246.833 44.8333,246.5 45.5,246.5C 47.7488,245.92 49.4154,244.587 50.5,242.5C 55.6649,238.414 61.3315,235.08 67.5,232.5C 69.0269,232.573 70.0269,231.906 70.5,230.5C 77.9053,225.774 85.572,221.441 93.5,217.5C 95.0269,217.573 96.0269,216.906 96.5,215.5C 103.905,210.774 111.572,206.441 119.5,202.5C 121.027,202.573 122.027,201.906 122.5,200.5C 127.502,196.997 132.835,193.997 138.5,191.5C 140.027,191.573 141.027,190.906 141.5,189.5C 162.905,176.775 184.571,164.441 206.5,152.5C 208.027,152.573 209.027,151.906 209.5,150.5C 210.514,149.326 211.847,148.66 213.5,148.5C 215.027,148.573 216.027,147.906 216.5,146.5C 217.514,145.326 218.847,144.66 220.5,144.5C 222.027,144.573 223.027,143.906 223.5,142.5C 224.514,141.326 225.847,140.66 227.5,140.5C 229.027,140.573 230.027,139.906 230.5,138.5C 240.835,131.997 251.502,125.997 262.5,120.5C 264.027,120.573 265.027,119.906 265.5,118.5C 266.514,117.326 267.847,116.66 269.5,116.5C 271.027,116.573 272.027,115.906 272.5,114.5C 285.906,106.441 299.573,98.7741 313.5,91.5C 315.027,91.573 316.027,90.9063 316.5,89.5C 317.514,88.3263 318.847,87.6596 320.5,87.5C 322.027,87.573 323.027,86.9063 323.5,85.5C 334.502,78.6632 345.836,72.3299 357.5,66.5C 359.027,66.573 360.027,65.9063 360.5,64.5C 364.577,61.7728 368.91,59.4394 373.5,57.5C 375.027,57.573 376.027,56.9063 376.5,55.5C 382.838,51.3292 389.504,47.6625 396.5,44.5C 398.027,44.573 399.027,43.9063 399.5,42.5C 403.577,39.7728 407.91,37.4394 412.5,35.5C 414.027,35.573 415.027,34.9063 415.5,33.5C 421.838,29.3292 428.504,25.6625 435.5,22.5C 437.027,22.573 438.027,21.9063 438.5,20.5C 442.577,17.7728 446.91,15.4394 451.5,13.5C 453.027,13.573 454.027,12.9063 454.5,11.5C 456.701,10.4336 459.035,9.76697 461.5,9.5C 465.162,9.2766 468.495,8.2766 471.5,6.5C 472.263,5.73209 473.263,5.23209 474.5,5C 491.167,4.33333 507.833,4.33333 524.5,5C 534.825,7.66704 544.825,11.167 554.5,15.5 Z"/></g>
<g><path style="opacity:0.945" fill="#064f06" d="M 471.5,6.5 C 468.495,8.2766 465.162,9.2766 461.5,9.5C 464.505,7.7234 467.838,6.7234 471.5,6.5 Z"/></g>
<g><path style="opacity:0.8" fill="#053d06" d="M 454.5,11.5 C 454.027,12.9063 453.027,13.573 451.5,13.5C 451.973,12.0937 452.973,11.427 454.5,11.5 Z"/></g>
<g><path style="opacity:0.902" fill="#0f3b0a" d="M 554.5,15.5 C 555.71,15.9321 556.71,16.5987 557.5,17.5C 555.821,17.7148 554.821,17.0481 554.5,15.5 Z"/></g>
<g><path style="opacity:0.945" fill="#0f3f0a" d="M 558.5,17.5 C 559.71,17.9321 560.71,18.5987 561.5,19.5C 559.821,19.7148 558.821,19.0481 558.5,17.5 Z"/></g>
<g><path style="opacity:0.886" fill="#0e3909" d="M 562.5,19.5 C 563.71,19.9321 564.71,20.5987 565.5,21.5C 563.821,21.7148 562.821,21.0481 562.5,19.5 Z"/></g>
<g><path style="opacity:0.776" fill="#063b06" d="M 438.5,20.5 C 438.027,21.9063 437.027,22.573 435.5,22.5C 435.973,21.0937 436.973,20.427 438.5,20.5 Z"/></g>
<g><path style="opacity:0.949" fill="#0e3f0a" d="M 569.5,23.5 C 570.71,23.9321 571.71,24.5987 572.5,25.5C 570.821,25.7148 569.821,25.0481 569.5,23.5 Z"/></g>
<g><path style="opacity:0.933" fill="#0e3d0a" d="M 576.5,27.5 C 577.71,27.9321 578.71,28.5987 579.5,29.5C 577.821,29.7148 576.821,29.0481 576.5,27.5 Z"/></g>
<g><path style="opacity:0.925" fill="#0f3b0a" d="M 583.5,31.5 C 584.71,31.9321 585.71,32.5987 586.5,33.5C 584.821,33.7148 583.821,33.0481 583.5,31.5 Z"/></g>
<g><path style="opacity:0.776" fill="#063a06" d="M 415.5,33.5 C 415.027,34.9063 414.027,35.573 412.5,35.5C 412.973,34.0937 413.973,33.427 415.5,33.5 Z"/></g>
<g><path style="opacity:0.953" fill="#0f3f0a" d="M 595.5,38.5 C 596.71,38.9321 597.71,39.5987 598.5,40.5C 596.821,40.7148 595.821,40.0481 595.5,38.5 Z"/></g>
<g><path style="opacity:0.765" fill="#063a06" d="M 399.5,42.5 C 399.027,43.9063 398.027,44.573 396.5,44.5C 396.973,43.0937 397.973,42.427 399.5,42.5 Z"/></g>
<g><path style="opacity:0.929" fill="#0e3c0a" d="M 602.5,42.5 C 603.71,42.9321 604.71,43.5987 605.5,44.5C 603.821,44.7148 602.821,44.0481 602.5,42.5 Z"/></g>
<g><path style="opacity:0.898" fill="#0e390a" d="M 609.5,46.5 C 610.71,46.9321 611.71,47.5987 612.5,48.5C 610.821,48.7148 609.821,48.0481 609.5,46.5 Z"/></g>
<g><path style="opacity:0.957" fill="#0e400a" d="M 614.5,49.5 C 615.71,49.9321 616.71,50.5987 617.5,51.5C 615.821,51.7148 614.821,51.0481 614.5,49.5 Z"/></g>
<g><path style="opacity:0.933" fill="#0e3d0a" d="M 621.5,53.5 C 622.71,53.9321 623.71,54.5987 624.5,55.5C 622.821,55.7148 621.821,55.0481 621.5,53.5 Z"/></g>
<g><path style="opacity:0.804" fill="#043d06" d="M 376.5,55.5 C 376.027,56.9063 375.027,57.573 373.5,57.5C 373.973,56.0937 374.973,55.427 376.5,55.5 Z"/></g>
<g><path style="opacity:0.922" fill="#0f3b0a" d="M 628.5,57.5 C 629.71,57.9321 630.71,58.5987 631.5,59.5C 629.821,59.7148 628.821,59.0481 628.5,57.5 Z"/></g>
<g><path style="opacity:0.765" fill="#063a06" d="M 360.5,64.5 C 360.027,65.9063 359.027,66.573 357.5,66.5C 357.973,65.0937 358.973,64.427 360.5,64.5 Z"/></g>
<g><path style="opacity:0.953" fill="#0f3f0a" d="M 640.5,64.5 C 641.71,64.9321 642.71,65.5987 643.5,66.5C 641.821,66.7148 640.821,66.0481 640.5,64.5 Z"/></g>
<g><path style="opacity:0.925" fill="#0f3b0a" d="M 647.5,68.5 C 648.71,68.9321 649.71,69.5987 650.5,70.5C 648.821,70.7148 647.821,70.0481 647.5,68.5 Z"/></g>
<g><path style="opacity:0.957" fill="#0e3f0a" d="M 659.5,75.5 C 660.71,75.9321 661.71,76.5987 662.5,77.5C 660.821,77.7148 659.821,77.0481 659.5,75.5 Z"/></g>
<g><path style="opacity:0.933" fill="#0e3d0a" d="M 666.5,79.5 C 667.71,79.9321 668.71,80.5987 669.5,81.5C 667.821,81.7148 666.821,81.0481 666.5,79.5 Z"/></g>
<g><path style="opacity:0.929" fill="#0f3d0a" d="M 673.5,83.5 C 674.71,83.9321 675.71,84.5987 676.5,85.5C 674.821,85.7148 673.821,85.0481 673.5,83.5 Z"/></g>
<g><path style="opacity:0.765" fill="#063a06" d="M 323.5,85.5 C 323.027,86.9063 322.027,87.573 320.5,87.5C 320.973,86.0937 321.973,85.427 323.5,85.5 Z"/></g>
<g><path style="opacity:0.922" fill="#0f3b0a" d="M 680.5,87.5 C 681.71,87.9321 682.71,88.5987 683.5,89.5C 681.821,89.7148 680.821,89.0481 680.5,87.5 Z"/></g>
<g><path style="opacity:0.773" fill="#063a06" d="M 316.5,89.5 C 316.027,90.9063 315.027,91.573 313.5,91.5C 313.973,90.0937 314.973,89.427 316.5,89.5 Z"/></g>
<g><path style="opacity:0.953" fill="#0e3f0a" d="M 699.5,98.5 C 700.71,98.9321 701.71,99.5987 702.5,100.5C 700.821,100.715 699.821,100.048 699.5,98.5 Z"/></g>
<g><path style="opacity:0.949" fill="#0f3f0a" d="M 706.5,102.5 C 707.71,102.932 708.71,103.599 709.5,104.5C 707.821,104.715 706.821,104.048 706.5,102.5 Z"/></g>
<g><path style="opacity:0.929" fill="#0f3d0a" d="M 713.5,106.5 C 714.71,106.932 715.71,107.599 716.5,108.5C 714.821,108.715 713.821,108.048 713.5,106.5 Z"/></g>
<g><path style="opacity:0.925" fill="#0f3b0a" d="M 720.5,110.5 C 721.71,110.932 722.71,111.599 723.5,112.5C 721.821,112.715 720.821,112.048 720.5,110.5 Z"/></g>
<g><path style="opacity:0.769" fill="#063a06" d="M 272.5,114.5 C 272.027,115.906 271.027,116.573 269.5,116.5C 269.973,115.094 270.973,114.427 272.5,114.5 Z"/></g>
<g><path style="opacity:0.776" fill="#063b06" d="M 265.5,118.5 C 265.027,119.906 264.027,120.573 262.5,120.5C 262.973,119.094 263.973,118.427 265.5,118.5 Z"/></g>
<g><path style="opacity:0.957" fill="#0e3f0a" d="M 739.5,121.5 C 740.71,121.932 741.71,122.599 742.5,123.5C 740.821,123.715 739.821,123.048 739.5,121.5 Z"/></g>
<g><path style="opacity:0.953" fill="#0f3f0a" d="M 746.5,125.5 C 747.71,125.932 748.71,126.599 749.5,127.5C 747.821,127.715 746.821,127.048 746.5,125.5 Z"/></g>
<g><path style="opacity:0.929" fill="#0f3d0a" d="M 753.5,129.5 C 754.71,129.932 755.71,130.599 756.5,131.5C 754.821,131.715 753.821,131.048 753.5,129.5 Z"/></g>
<g><path style="opacity:0.925" fill="#0e3d0a" d="M 760.5,133.5 C 761.71,133.932 762.71,134.599 763.5,135.5C 761.821,135.715 760.821,135.048 760.5,133.5 Z"/></g>
<g><path style="opacity:0.925" fill="#0e3c0a" d="M 767.5,137.5 C 768.71,137.932 769.71,138.599 770.5,139.5C 768.821,139.715 767.821,139.048 767.5,137.5 Z"/></g>
<g><path style="opacity:0.78" fill="#063c06" d="M 230.5,138.5 C 230.027,139.906 229.027,140.573 227.5,140.5C 227.973,139.094 228.973,138.427 230.5,138.5 Z"/></g>
<g><path style="opacity:0.925" fill="#0e3c0a" d="M 774.5,141.5 C 775.71,141.932 776.71,142.599 777.5,143.5C 775.821,143.715 774.821,143.048 774.5,141.5 Z"/></g>
<g><path style="opacity:0.773" fill="#073b06" d="M 223.5,142.5 C 223.027,143.906 222.027,144.573 220.5,144.5C 220.973,143.094 221.973,142.427 223.5,142.5 Z"/></g>
<g><path style="opacity:0.925" fill="#0e3c0a" d="M 781.5,145.5 C 782.71,145.932 783.71,146.599 784.5,147.5C 782.821,147.715 781.821,147.048 781.5,145.5 Z"/></g>
<g><path style="opacity:0.769" fill="#063a06" d="M 216.5,146.5 C 216.027,147.906 215.027,148.573 213.5,148.5C 213.973,147.094 214.973,146.427 216.5,146.5 Z"/></g>
<g><path style="opacity:0.925" fill="#0f3b0a" d="M 788.5,149.5 C 789.71,149.932 790.71,150.599 791.5,151.5C 789.821,151.715 788.821,151.048 788.5,149.5 Z"/></g>
<g><path style="opacity:0.765" fill="#073907" d="M 209.5,150.5 C 209.027,151.906 208.027,152.573 206.5,152.5C 206.973,151.094 207.973,150.427 209.5,150.5 Z"/></g>
<g><path style="opacity:0.922" fill="#0f3b0a" d="M 795.5,153.5 C 796.71,153.932 797.71,154.599 798.5,155.5C 796.821,155.715 795.821,155.048 795.5,153.5 Z"/></g>
<g><path style="opacity:0.922" fill="#0f3b0a" d="M 802.5,157.5 C 803.71,157.932 804.71,158.599 805.5,159.5C 803.821,159.715 802.821,159.048 802.5,157.5 Z"/></g>
<g><path style="opacity:0.922" fill="#0f3b0a" d="M 809.5,161.5 C 810.71,161.932 811.71,162.599 812.5,163.5C 810.821,163.715 809.821,163.048 809.5,161.5 Z"/></g>
<g><path style="opacity:0.922" fill="#0f3b0a" d="M 816.5,165.5 C 817.71,165.932 818.71,166.599 819.5,167.5C 817.821,167.715 816.821,167.048 816.5,165.5 Z"/></g>
<g><path style="opacity:0.922" fill="#0f3b0a" d="M 823.5,169.5 C 824.71,169.932 825.71,170.599 826.5,171.5C 824.821,171.715 823.821,171.048 823.5,169.5 Z"/></g>
<g><path style="opacity:0.765" fill="#073907" d="M 141.5,189.5 C 141.027,190.906 140.027,191.573 138.5,191.5C 138.973,190.094 139.973,189.427 141.5,189.5 Z"/></g>
<g><path style="opacity:0.922" fill="#0f3b0a" d="M 858.5,189.5 C 859.71,189.932 860.71,190.599 861.5,191.5C 859.821,191.715 858.821,191.048 858.5,189.5 Z"/></g>
<g><path style="opacity:0.925" fill="#0e3c0a" d="M 865.5,193.5 C 866.71,193.932 867.71,194.599 868.5,195.5C 866.821,195.715 865.821,195.048 865.5,193.5 Z"/></g>
<g><path style="opacity:0.929" fill="#0e3d0a" d="M 872.5,197.5 C 873.71,197.932 874.71,198.599 875.5,199.5C 873.821,199.715 872.821,199.048 872.5,197.5 Z"/></g>
<g><path style="opacity:0.776" fill="#073b06" d="M 122.5,200.5 C 122.027,201.906 121.027,202.573 119.5,202.5C 119.973,201.094 120.973,200.427 122.5,200.5 Z"/></g>
<g><path style="opacity:0.949" fill="#0f3f0a" d="M 879.5,201.5 C 880.71,201.932 881.71,202.599 882.5,203.5C 880.821,203.715 879.821,203.048 879.5,201.5 Z"/></g>
<g><path style="opacity:0.953" fill="#0f3f0a" d="M 886.5,205.5 C 887.71,205.932 888.71,206.599 889.5,207.5C 887.821,207.715 886.821,207.048 886.5,205.5 Z"/></g>
<g><path style="opacity:0.773" fill="#073b06" d="M 96.5,215.5 C 96.0269,216.906 95.0269,217.573 93.5,217.5C 93.9731,216.094 94.9731,215.427 96.5,215.5 Z"/></g>
<g><path style="opacity:0.922" fill="#0f3b0a" d="M 916.5,222.5 C 917.71,222.932 918.71,223.599 919.5,224.5C 917.821,224.715 916.821,224.048 916.5,222.5 Z"/></g>
<g><path style="opacity:0.925" fill="#0e3c0a" d="M 923.5,226.5 C 924.71,226.932 925.71,227.599 926.5,228.5C 924.821,228.715 923.821,228.048 923.5,226.5 Z"/></g>
<g><path style="opacity:0.769" fill="#073907" d="M 70.5,230.5 C 70.0269,231.906 69.0269,232.573 67.5,232.5C 67.9731,231.094 68.9731,230.427 70.5,230.5 Z"/></g>
<g><path style="opacity:0.929" fill="#0e3d0a" d="M 930.5,230.5 C 931.71,230.932 932.71,231.599 933.5,232.5C 931.821,232.715 930.821,232.048 930.5,230.5 Z"/></g>
<g><path style="opacity:0.949" fill="#0f3f0a" d="M 937.5,234.5 C 938.71,234.932 939.71,235.599 940.5,236.5C 938.821,236.715 937.821,236.048 937.5,234.5 Z"/></g>
<g><path style="opacity:0.957" fill="#064d06" d="M 50.5,242.5 C 49.4154,244.587 47.7488,245.92 45.5,246.5C 46.5846,244.413 48.2512,243.08 50.5,242.5 Z"/></g>
<g><path style="opacity:0.851" fill="#0c4908" d="M 44.5,247.5 C 42.7607,250.243 40.4274,252.243 37.5,253.5C 39.2393,250.757 41.5726,248.757 44.5,247.5 Z"/></g>
<g><path style="opacity:0.718" fill="#0e3608" d="M 32.5,258.5 C 32.573,260.027 31.9063,261.027 30.5,261.5C 30.427,259.973 31.0937,258.973 32.5,258.5 Z"/></g>
<g><path style="opacity:0.761" fill="#0d3607" d="M 970.5,263.5 C 971.906,263.973 972.573,264.973 972.5,266.5C 971.094,266.027 970.427,265.027 970.5,263.5 Z"/></g>
<g><path style="opacity:0.89" fill="#093e07" d="M 972.5,266.5 C 974.262,267.262 975.262,268.596 975.5,270.5C 973.738,269.738 972.738,268.404 972.5,266.5 Z"/></g>
<g><path style="opacity:0.518" fill="#0a3806" d="M 23.5,270.5 C 23.573,272.027 22.9063,273.027 21.5,273.5C 21.427,271.973 22.0937,270.973 23.5,270.5 Z"/></g>
<g><path style="opacity:0.38" fill="#092d04" d="M 975.5,270.5 C 976.906,270.973 977.573,271.973 977.5,273.5C 976.094,273.027 975.427,272.027 975.5,270.5 Z"/></g>
<g><path style="opacity:0.376" fill="#082d04" d="M 21.5,273.5 C 21.573,275.027 20.9063,276.027 19.5,276.5C 19.427,274.973 20.0937,273.973 21.5,273.5 Z"/></g>
</svg>
