<?xml version="1.0" standalone="no"?>
<svg xmlns:xlink="http://www.w3.org/1999/xlink" id="wave" style="transform:rotate(180deg); transition: 0.3s" viewBox="0 0 1440 100" version="1.1" xmlns="http://www.w3.org/2000/svg"><defs><linearGradient id="sw-gradient-0" x1="0" x2="0" y1="1" y2="0"><stop stop-color="rgba(255, 255, 255, 1)" offset="0%"/><stop stop-color="rgba(255, 255, 255, 1)" offset="100%"/></linearGradient></defs><path style="transform:translate(0, 0px); opacity:1" fill="url(#sw-gradient-0)" d="M0,50L48,53.3C96,57,192,63,288,55C384,47,480,23,576,23.3C672,23,768,47,864,50C960,53,1056,37,1152,38.3C1248,40,1344,60,1440,61.7C1536,63,1632,47,1728,35C1824,23,1920,17,2016,20C2112,23,2208,37,2304,40C2400,43,2496,37,2592,43.3C2688,50,2784,70,2880,65C2976,60,3072,30,3168,26.7C3264,23,3360,47,3456,46.7C3552,47,3648,23,3744,11.7C3840,0,3936,0,4032,8.3C4128,17,4224,33,4320,48.3C4416,63,4512,77,4608,80C4704,83,4800,77,4896,73.3C4992,70,5088,70,5184,58.3C5280,47,5376,23,5472,23.3C5568,23,5664,47,5760,58.3C5856,70,5952,70,6048,66.7C6144,63,6240,57,6336,51.7C6432,47,6528,43,6624,50C6720,57,6816,73,6864,81.7L6912,90L6912,100L6864,100C6816,100,6720,100,6624,100C6528,100,6432,100,6336,100C6240,100,6144,100,6048,100C5952,100,5856,100,5760,100C5664,100,5568,100,5472,100C5376,100,5280,100,5184,100C5088,100,4992,100,4896,100C4800,100,4704,100,4608,100C4512,100,4416,100,4320,100C4224,100,4128,100,4032,100C3936,100,3840,100,3744,100C3648,100,3552,100,3456,100C3360,100,3264,100,3168,100C3072,100,2976,100,2880,100C2784,100,2688,100,2592,100C2496,100,2400,100,2304,100C2208,100,2112,100,2016,100C1920,100,1824,100,1728,100C1632,100,1536,100,1440,100C1344,100,1248,100,1152,100C1056,100,960,100,864,100C768,100,672,100,576,100C480,100,384,100,288,100C192,100,96,100,48,100L0,100Z"/></svg>