<?xml version="1.0" standalone="no"?>
<!DOCTYPE svg PUBLIC "-//W3C//DTD SVG 20010904//EN"
 "http://www.w3.org/TR/2001/REC-SVG-20010904/DTD/svg10.dtd">
<svg version="1.0" xmlns="http://www.w3.org/2000/svg"
 width="512.000000pt" height="512.000000pt" viewBox="0 0 512.000000 512.000000"
 preserveAspectRatio="xMidYMid meet">

<g transform="translate(0.000000,512.000000) scale(0.100000,-0.100000)"
 stroke="none">
<path fill="#fff" d="M3421 5109 c-296 -49 -610 -381 -857 -905 -66 -139 -140 -325 -180
-446 -15 -49 -31 -88 -35 -88 -3 0 -21 34 -39 76 -46 105 -166 315 -238 415
-449 628 -962 543 -1391 -229 -37 -68 -51 -103 -51 -132 0 -66 57 -107 124
-89 31 9 42 21 80 87 175 305 309 462 461 538 127 63 228 55 354 -26 281 -182
587 -762 721 -1365 54 -244 67 -440 37 -581 -53 -251 -222 -477 -456 -613
-110 -64 -213 -99 -368 -125 l-33 -6 0 312 0 312 185 187 c181 182 185 187
185 228 0 57 -41 101 -96 101 -34 0 -47 -10 -156 -117 l-118 -117 0 432 c0
460 -2 487 -48 511 -39 21 -91 13 -123 -18 l-29 -29 0 -636 c0 -350 -3 -636
-8 -636 -4 0 -83 76 -176 169 -93 93 -180 172 -194 176 -58 14 -122 -35 -122
-95 0 -41 31 -78 264 -310 l236 -235 0 -117 0 -117 -38 6 c-392 56 -702 317
-807 678 -48 164 -45 316 11 594 35 173 34 188 -4 223 -44 38 -93 38 -131 0
-20 -19 -33 -48 -45 -102 -60 -264 -77 -474 -53 -635 56 -361 285 -669 622
-838 126 -63 230 -94 408 -122 l37 -6 0 -288 0 -287 -68 17 c-84 22 -216 24
-302 3 -96 -22 -201 -77 -268 -139 l-60 -55 -83 0 c-46 0 -109 -7 -139 -15
-203 -54 -372 -230 -416 -434 -22 -105 -19 -145 15 -183 l29 -33 2495 -3 2495
-2 31 26 c40 33 47 75 32 199 -30 255 -131 471 -305 653 -225 235 -499 352
-823 352 -118 0 -180 -9 -340 -47 l-23 -5 0 181 c0 179 0 181 23 185 12 2 67
11 121 20 408 67 788 349 962 715 90 188 131 391 120 599 -28 536 -305 1322
-625 1769 -255 355 -520 508 -800 462z m220 -213 c303 -107 628 -594 848
-1269 108 -334 171 -682 158 -882 -33 -502 -442 -923 -964 -993 l-63 -9 0 366
0 366 201 200 c110 110 207 213 216 229 39 73 -38 164 -114 135 -16 -5 -90
-72 -165 -147 l-138 -137 0 317 c0 341 -2 358 -51 384 -52 27 -115 8 -137 -41
-9 -19 -12 -168 -12 -563 l0 -537 -207 207 c-115 114 -220 212 -235 217 -77
29 -154 -62 -115 -135 9 -16 137 -150 286 -299 l271 -270 0 -146 0 -146 -78
12 c-294 47 -557 197 -721 409 l-43 56 16 67 c58 228 28 538 -91 937 l-35 119
27 99 c140 523 397 1032 646 1277 181 180 337 235 500 177z m-891 -3120 c178
-120 367 -191 580 -220 l85 -12 3 -230 2 -231 -67 -44 c-88 -57 -258 -226
-312 -310 l-42 -67 -37 9 c-72 17 -159 8 -268 -26 -17 -5 -26 4 -57 53 -90
146 -277 272 -457 308 -98 19 -231 15 -320 -12 -77 -22 -201 -89 -254 -135
-24 -21 -47 -39 -50 -39 -3 0 -6 135 -6 299 0 339 -10 304 90 316 297 37 616
235 790 491 l55 81 95 -91 c53 -50 129 -113 170 -140z m1500 -781 c172 -55
276 -119 400 -245 135 -137 233 -329 256 -498 l7 -52 -336 0 -336 0 -17 57
c-52 184 -210 343 -393 397 -181 53 -368 17 -522 -101 l-65 -51 -33 35 -33 34
35 52 c129 195 348 341 587 392 45 10 112 13 215 11 130 -3 161 -7 235 -31z
m-2098 -186 c165 -36 306 -157 368 -319 38 -100 99 -126 176 -73 53 36 126 63
172 63 111 0 215 -70 263 -177 32 -69 59 -93 105 -93 39 0 75 27 107 83 123
209 417 247 589 76 42 -42 98 -133 98 -159 0 -7 -393 -10 -1240 -10 l-1240 0
0 93 c0 162 45 274 155 382 121 119 286 168 447 134z m-859 -162 l57 -26 0
-210 0 -211 -566 0 -566 0 7 27 c10 41 61 118 103 154 20 18 61 44 92 58 49
23 68 26 175 27 66 1 126 2 133 3 6 0 39 30 72 65 62 65 146 118 216 136 22 5
80 8 129 6 70 -3 103 -9 148 -29z"/>
<path fill="#fff" d="M3474 3859 c-57 -28 -67 -114 -18 -160 54 -51 146 -18 160 57 14 77
-70 138 -142 103z"/>
<path fill="#fff" d="M543 3570 c-35 -15 -65 -69 -59 -108 6 -42 22 -61 64 -79 61 -25 132
25 132 94 0 64 -79 118 -137 93z"/>
</g>
</svg>
