<?xml version="1.0" standalone="no"?>
<!DOCTYPE svg PUBLIC "-//W3C//DTD SVG 20010904//EN"
 "http://www.w3.org/TR/2001/REC-SVG-20010904/DTD/svg10.dtd">
<svg version="1.0" xmlns="http://www.w3.org/2000/svg"
 width="200.000000pt" height="200.000000pt" viewBox="0 0 200.000000 200.000000"
 preserveAspectRatio="xMidYMid meet">

<g transform="translate(0.000000,200.000000) scale(0.100000,-0.100000)"
fill="#6a994e" stroke="none">
<path d="M785 1618 c-2 -7 -6 -37 -7 -66 l-3 -54 -34 46 c-19 25 -41 46 -49
46 -8 0 9 -26 38 -60 29 -33 56 -60 61 -60 5 0 9 36 9 80 0 75 -5 97 -15 68z"/>
<path d="M980 1563 c0 -29 5 -53 10 -53 6 0 10 20 10 45 0 33 4 45 14 45 8 0
17 4 21 9 3 5 -8 9 -25 9 -30 -1 -30 -2 -30 -55z"/>
<path d="M860 1599 c-11 -8 -7 -9 18 -4 25 5 32 3 32 -9 0 -9 -11 -21 -25 -26
-15 -6 -25 -17 -25 -29 0 -26 14 -34 50 -26 33 7 39 31 20 79 -10 28 -42 35
-70 15z m58 -61 c-2 -12 -9 -23 -15 -26 -19 -6 -29 28 -12 39 23 14 31 10 27
-13z"/>
<path d="M1075 1583 c-3 -13 -7 -34 -10 -48 -3 -14 -1 -25 5 -25 5 0 13 18 16
40 6 34 10 40 32 40 24 0 24 -2 18 -50 -4 -29 -3 -50 3 -50 11 0 26 98 17 108
-4 3 -23 7 -42 7 -29 1 -35 -2 -39 -22z"/>
<path d="M1225 1570 c3 -5 13 -10 21 -10 8 0 14 -8 14 -18 0 -15 -6 -18 -28
-14 -36 5 -63 -22 -41 -42 8 -8 26 -16 40 -19 22 -6 27 -2 37 26 17 47 15 65
-7 77 -25 13 -44 13 -36 0z m25 -65 c0 -9 -7 -18 -16 -22 -18 -7 -39 11 -30
26 11 17 46 13 46 -4z"/>
<path d="M716 1313 c-14 -46 -27 -215 -22 -272 15 -144 94 -237 236 -277 58
-16 90 -43 90 -75 0 -10 4 -19 9 -19 12 0 21 25 21 58 0 57 10 69 70 91 69 25
134 84 161 147 11 24 22 78 25 121 6 74 -7 228 -20 241 -7 6 -27 -10 -184
-149 l-108 -97 -128 124 c-70 68 -132 124 -136 124 -5 0 -11 -8 -14 -17z m266
-270 c22 -29 46 -70 54 -90 16 -45 18 -129 4 -138 -5 -3 -10 0 -10 8 0 28 -70
153 -111 197 -22 25 -34 34 -25 20 50 -78 116 -232 116 -271 0 -11 -122 41
-166 72 -49 33 -100 107 -111 158 -10 47 -10 218 0 254 l8 28 100 -93 c55 -51
118 -116 141 -145z m245 182 c-13 -20 -59 -74 -102 -121 -71 -78 -78 -83 -91
-67 -13 16 -4 27 93 120 60 57 112 103 116 103 4 0 -3 -16 -16 -35z m51 -87
c-5 -122 -25 -175 -87 -236 -37 -36 -97 -70 -105 -61 -2 2 -6 39 -9 81 l-7 77
71 83 c39 46 83 104 97 130 15 26 31 43 36 38 4 -4 6 -55 4 -112z"/>
<path d="M719 586 c-59 -29 -63 -103 -7 -132 30 -16 32 -15 49 7 23 30 23 32
-1 47 -19 11 -20 11 -14 -12 7 -29 -9 -41 -36 -26 -28 15 -26 61 3 88 27 26
50 28 67 7 7 -8 17 -15 23 -15 15 0 -22 37 -43 43 -10 3 -29 0 -41 -7z"/>
<path d="M1256 567 c-29 -21 -16 -52 21 -53 42 0 53 -12 29 -30 -11 -7 -17
-16 -14 -19 3 -3 16 3 28 13 33 26 21 52 -24 52 -40 0 -54 14 -29 29 10 5 15
12 12 15 -3 3 -13 0 -23 -7z"/>
<path d="M1020 515 c0 -18 -5 -25 -18 -25 -41 0 -70 -73 -39 -98 7 -6 27 -10
45 -10 l32 1 0 79 c0 45 -4 78 -10 78 -5 0 -10 -11 -10 -25z m0 -74 c0 -44
-13 -59 -35 -41 -28 23 -12 80 22 80 8 0 13 -14 13 -39z"/>
<path d="M1164 517 l-21 -11 20 -48 c11 -26 24 -48 28 -48 12 0 12 1 -6 45
-12 28 -13 40 -4 51 18 22 28 17 46 -23 22 -47 22 -48 28 -41 3 3 -2 24 -11
47 -17 43 -36 50 -80 28z"/>
<path d="M823 508 c40 -14 35 -38 -8 -38 -60 0 -56 -53 4 -62 21 -3 26 3 39
41 14 41 13 45 -4 58 -10 7 -27 13 -38 12 -17 0 -16 -2 7 -11z m17 -55 c-1
-19 -19 -35 -34 -30 -26 10 -19 37 9 37 14 0 25 -3 25 -7z"/>
<path d="M890 483 c0 -10 -3 -35 -6 -55 -5 -25 -3 -38 5 -38 6 0 11 10 11 23
0 43 12 67 33 67 26 0 20 5 -15 14 -23 5 -28 3 -28 -11z"/>
<path d="M1072 488 c-15 -15 -16 -53 -2 -79 12 -21 46 -25 70 -8 12 8 10 10
-9 5 -24 -5 -51 8 -51 24 0 4 14 10 30 14 21 4 30 11 30 25 0 29 -45 42 -68
19z m47 -11 c13 -16 5 -27 -21 -27 -18 0 -25 20 -11 33 10 10 19 8 32 -6z"/>
</g>
</svg>
